<?xml version="1.0" standalone="no"?>
<!DOCTYPE svg PUBLIC "-//W3C//DTD SVG 20010904//EN"
 "http://www.w3.org/TR/2001/REC-SVG-20010904/DTD/svg10.dtd">
<svg version="1.0" xmlns="http://www.w3.org/2000/svg"
 width="3840.000000pt" height="3838.000000pt" viewBox="0 0 3840.000000 3838.000000"
 preserveAspectRatio="xMidYMid meet">

<g transform="translate(0.000000,3838.000000) scale(0.100000,-0.100000)"
fill="#000000" stroke="none">
<path d="M17805 38323 c-504 -15 -1434 -134 -2206 -282 -640 -123 -1172 -252
-1809 -438 -199 -58 -217 -63 -565 -177 -1965 -640 -3823 -1607 -5535 -2879
-1165 -866 -2297 -1939 -3240 -3072 -430 -516 -861 -1092 -1112 -1485 -604
-947 -954 -1850 -1009 -2605 -14 -185 -6 -545 16 -680 34 -222 107 -464 195
-651 44 -93 159 -276 207 -329 10 -11 34 -40 54 -65 83 -102 232 -244 358
-339 516 -392 1177 -613 2111 -708 253 -26 1085 -25 1380 0 716 63 1355 167
2085 342 1220 291 2634 798 3884 1391 73 35 136 64 138 64 9 0 730 363 893
450 162 86 359 192 455 245 22 13 76 43 120 67 609 338 1474 878 2025 1264 41
29 106 75 144 101 229 159 651 472 947 702 383 298 995 818 1283 1090 39 37
115 108 170 160 56 52 229 223 386 381 503 505 909 969 1290 1475 213 283 316
433 555 805 125 196 308 531 422 775 259 552 392 984 465 1515 20 144 16 575
-6 720 -55 360 -178 684 -350 920 -140 191 -325 372 -566 551 -194 145 -562
324 -879 429 -641 212 -1342 292 -2306 263z"/>
<path d="M28290 36086 c0 -3 26 -22 130 -93 254 -174 627 -513 867 -788 172
-198 394 -513 518 -735 550 -987 705 -2133 464 -3445 -125 -681 -382 -1467
-715 -2185 -118 -255 -346 -701 -479 -935 -15 -27 -42 -75 -58 -105 -17 -30
-82 -140 -145 -245 -953 -1579 -2226 -3097 -3862 -4606 -1117 -1031 -2414
-2043 -3785 -2953 -290 -193 -768 -501 -903 -581 -18 -11 -121 -74 -230 -141
-1279 -782 -2737 -1540 -4097 -2129 -110 -47 -213 -92 -230 -100 -16 -7 -135
-57 -264 -110 -1658 -684 -3280 -1192 -4860 -1521 -293 -61 -643 -126 -931
-173 -650 -106 -1252 -174 -1930 -218 -392 -25 -1398 -25 -1750 0 -822 60
-1433 158 -2075 333 -1247 341 -2245 939 -2906 1739 -581 705 -935 1597 -1021
2570 l-13 150 -6 -130 c-10 -204 -10 -837 1 -1085 5 -124 12 -290 15 -370 14
-364 66 -978 116 -1370 11 -85 24 -193 30 -240 34 -280 124 -812 210 -1245
268 -1355 765 -2880 1358 -4163 224 -484 286 -598 505 -927 133 -200 376 -519
511 -670 19 -22 59 -68 88 -102 76 -91 505 -513 627 -618 219 -189 399 -331
645 -507 363 -260 994 -620 1405 -802 36 -16 110 -49 165 -73 276 -124 694
-280 1037 -388 1633 -517 3532 -716 5613 -590 1112 68 2324 241 3505 501 846
186 1764 439 2625 721 563 185 1579 556 1802 659 17 7 33 14 36 14 8 0 535
220 741 310 1020 442 2342 1107 3181 1600 44 26 141 82 215 125 1468 852 3016
1936 4290 3004 177 148 581 496 665 572 22 20 90 80 150 135 612 550 1291
1222 1851 1834 1138 1244 2122 2575 2871 3885 1026 1796 1657 3626 1817 5275
37 377 41 473 40 915 0 435 -14 735 -43 942 -6 38 -17 124 -26 193 -39 302
-134 762 -212 1024 -134 455 -263 786 -463 1191 -162 330 -210 407 -518 845
-930 1318 -2024 2511 -3268 3566 -768 650 -1608 1251 -2493 1783 -309 186
-811 469 -811 457z"/>
<path d="M38390 19363 c0 -44 -55 -550 -75 -693 -123 -880 -349 -1756 -688
-2670 -58 -157 -183 -473 -206 -525 -5 -11 -40 -90 -76 -175 -146 -340 -232
-523 -410 -875 -145 -286 -321 -614 -445 -830 -32 -55 -67 -116 -78 -135 -216
-379 -602 -970 -1022 -1564 -53 -75 -332 -446 -429 -571 -161 -208 -532 -668
-561 -695 -3 -3 -27 -32 -54 -65 -28 -33 -68 -80 -90 -105 -23 -25 -68 -77
-101 -115 -539 -621 -1330 -1429 -1945 -1985 -58 -52 -107 -97 -110 -100 -112
-112 -984 -851 -1180 -999 -25 -19 -47 -37 -50 -41 -3 -3 -25 -21 -50 -40 -25
-19 -52 -40 -60 -47 -288 -232 -949 -721 -1350 -996 -763 -526 -1680 -1095
-2395 -1487 -609 -334 -1410 -740 -1865 -945 -52 -23 -167 -75 -255 -115 -697
-314 -1532 -644 -2240 -887 -2335 -799 -4635 -1229 -6808 -1272 -587 -12
-1346 9 -1777 49 -58 5 -139 12 -180 15 -41 4 -111 10 -155 15 -44 6 -161 19
-260 30 -1145 131 -2359 430 -3305 813 -155 62 -319 131 -370 154 -253 116
-314 143 -316 140 -3 -3 297 -175 421 -242 28 -15 64 -35 80 -45 200 -117 846
-440 1205 -602 85 -39 182 -83 215 -98 572 -264 1624 -652 2300 -849 39 -11
115 -33 170 -50 55 -16 168 -48 250 -70 83 -22 186 -50 230 -61 136 -37 383
-97 550 -135 88 -19 198 -44 245 -55 270 -61 997 -194 1170 -215 25 -3 68 -9
95 -15 28 -5 74 -11 103 -15 29 -3 99 -12 155 -19 343 -48 765 -91 1227 -126
582 -44 1509 -55 2140 -27 366 17 459 23 860 58 381 32 850 88 1200 143 52 8
138 22 190 30 85 13 177 29 410 71 340 62 625 124 1040 225 342 84 425 106
665 174 106 31 171 50 345 101 659 194 1682 575 2218 826 35 16 65 29 67 29 3
0 37 15 77 34 40 18 129 59 198 91 350 161 1068 532 1334 689 43 25 79 46 81
46 6 0 431 252 545 323 58 36 143 89 190 118 254 156 774 510 1100 749 574
419 1173 913 1720 1419 275 254 893 881 1161 1176 304 336 709 822 974 1170
55 72 127 166 160 210 414 542 978 1411 1367 2105 740 1322 1359 2824 1748
4245 12 44 31 110 41 146 131 460 329 1384 419 1954 11 72 25 157 30 190 100
628 172 1396 204 2200 11 244 19 825 12 825 -3 0 -6 -3 -6 -7z"/>
</g>
</svg>
