<?xml version="1.0" encoding="UTF-8"?>
<svg version="1.1" xmlns="http://www.w3.org/2000/svg" width="1080" height="1080">
<path d="M0 0 C1.24028221 -0.00205263 2.48056441 -0.00410527 3.75843093 -0.0062201 C7.19510122 -0.01089374 10.63171908 -0.01111924 14.06838863 -0.00944251 C17.80972304 -0.00870913 21.55105052 -0.01373971 25.29238194 -0.01801753 C32.7102802 -0.02558559 40.12817126 -0.02778998 47.54607297 -0.02834659 C56.43262309 -0.02926141 65.31916658 -0.03593252 74.20571384 -0.04269341 C95.6836945 -0.05874404 117.16167443 -0.06465575 138.63966 -0.06944216 C148.80361121 -0.07177917 158.96756185 -0.07538196 169.13151262 -0.07913754 C203.93510941 -0.09197258 238.73870589 -0.10269152 273.54230499 -0.10614014 C275.72659197 -0.10636177 277.91087894 -0.10658355 280.09516592 -0.10680549 C282.28468091 -0.10702613 284.4741959 -0.10724661 286.66371089 -0.10746694 C291.05613506 -0.10790948 295.44855922 -0.1083566 299.84098339 -0.10880661 C300.93004708 -0.108916 302.01911078 -0.10902539 303.1411764 -0.1091381 C338.44456734 -0.11276776 373.74793773 -0.12868462 409.05132081 -0.15199697 C446.39043515 -0.17660845 483.72953775 -0.1903136 521.06866044 -0.19150805 C525.16983807 -0.1916795 529.2710157 -0.19189493 533.37219334 -0.19214249 C534.88689212 -0.19222614 534.88689212 -0.19222614 536.43219088 -0.19231148 C552.66357209 -0.19346082 568.89493217 -0.20447286 585.12630625 -0.21902954 C601.4503446 -0.23341584 617.77435595 -0.2366195 634.0983989 -0.22858956 C643.78792036 -0.22414328 653.47735448 -0.22795373 663.16686441 -0.24382807 C669.65083426 -0.25361566 676.13474327 -0.25236395 682.61871263 -0.24239184 C686.30554685 -0.23702691 689.992214 -0.23620109 693.67903403 -0.24890056 C742.79466906 -0.40719816 789.05927049 13.12115721 826.5165205 46.13142776 C827.47687206 46.97060745 828.43722363 47.80978714 829.42667675 48.67439651 C865.26512457 80.47078313 889.6193668 126.08058519 893.5165205 174.13142776 C893.65588298 178.29298216 893.65438253 182.45130587 893.64794827 186.61490726 C893.65102722 188.47533057 893.65102722 188.47533057 893.65416837 190.37333819 C893.658842 193.81000849 893.65906751 197.24662634 893.65739078 200.6832959 C893.6566574 204.42463031 893.66168797 208.16595778 893.6659658 211.90728921 C893.67353386 219.32518746 893.67573825 226.74307852 893.67629485 234.16098024 C893.67720968 243.04753036 893.68388078 251.93407385 893.69064168 260.82062111 C893.70669231 282.29860176 893.71260402 303.7765817 893.71739042 325.25456727 C893.71972744 335.41851847 893.72333022 345.58246912 893.7270858 355.74641988 C893.73992085 390.55001667 893.75063978 425.35361315 893.7540884 460.15721226 C893.75431003 462.34149923 893.75453182 464.52578621 893.75475375 466.71007318 C893.75497439 468.89958818 893.75519488 471.08910317 893.7554152 473.27861816 C893.75585775 477.67104232 893.75630487 482.06346649 893.75675488 486.45589066 C893.75686427 487.54495435 893.75697366 488.63401804 893.75708636 489.75608367 C893.76071602 525.05947461 893.77663288 560.362845 893.79994524 595.66622807 C893.82455672 633.00534241 893.83826186 670.34444501 893.83945632 707.6835677 C893.83962777 711.78474534 893.8398432 715.88592297 893.84009075 719.9871006 C893.84014652 720.99689979 893.84020229 722.00669898 893.84025975 723.04709814 C893.84140908 739.27847935 893.85242112 755.50983943 893.86697781 771.74121352 C893.8813641 788.06525187 893.88456777 804.38926321 893.87653783 820.71330617 C893.87209154 830.40282763 893.875902 840.09226174 893.89177634 849.78177167 C893.90156392 856.26574152 893.90031221 862.74965053 893.89034011 869.23361989 C893.88497517 872.92045412 893.88414935 876.60712127 893.89684883 880.2939413 C894.05514643 929.40957633 880.52679105 975.67417776 847.5165205 1013.13142776 C846.67734081 1014.09177933 845.83816113 1015.05213089 844.97355175 1016.04158401 C813.17716513 1051.88003184 767.56736308 1076.23427407 719.5165205 1080.13142776 C715.3549661 1080.27079025 711.19664239 1080.2692898 707.033041 1080.26285553 C705.79275879 1080.26490816 704.55247659 1080.2669608 703.27461007 1080.26907563 C699.83793978 1080.27374927 696.40132192 1080.27397477 692.96465237 1080.27229804 C689.22331796 1080.27156466 685.48199048 1080.27659524 681.74065906 1080.28087306 C674.3227608 1080.28844112 666.90486974 1080.29064551 659.48696803 1080.29120212 C650.60041791 1080.29211694 641.71387442 1080.29878805 632.82732716 1080.30554894 C611.3493465 1080.32159957 589.87136657 1080.32751128 568.393381 1080.33229769 C558.22942979 1080.3346347 548.06547915 1080.33823748 537.90152838 1080.34199307 C503.09793159 1080.35482811 468.29433511 1080.36554705 433.49073601 1080.36899567 C431.30644903 1080.3692173 429.12216206 1080.36943908 426.93787508 1080.36966102 C424.74836009 1080.36988166 422.5588451 1080.37010214 420.36933011 1080.37032247 C415.97690594 1080.37076501 411.58448178 1080.37121213 407.19205761 1080.37166214 C406.10299392 1080.37177153 405.01393022 1080.37188092 403.8918646 1080.37199363 C368.58847366 1080.37562329 333.28510327 1080.39154015 297.98172019 1080.4148525 C260.64260585 1080.43946398 223.30350325 1080.45316913 185.96438056 1080.45436358 C181.86320293 1080.45453503 177.7620253 1080.45475046 173.66084766 1080.45499802 C172.14614888 1080.45508167 172.14614888 1080.45508167 170.60085012 1080.45516701 C154.36946891 1080.45631635 138.13810883 1080.46732839 121.90673475 1080.48188507 C105.5826964 1080.49627137 89.25868505 1080.49947503 72.9346421 1080.49144509 C63.24512064 1080.48699881 53.55568652 1080.49080926 43.86617659 1080.5066836 C37.38220674 1080.51647119 30.89829773 1080.51521948 24.41432837 1080.50524737 C20.72749415 1080.49988244 17.040827 1080.49905662 13.35400697 1080.51175609 C-35.76162806 1080.67005369 -82.02622949 1067.14169832 -119.4834795 1034.13142776 C-120.44383106 1033.29224808 -121.40418262 1032.45306839 -122.39363575 1031.58845901 C-158.23208357 999.7920724 -182.5863258 954.18227034 -186.4834795 906.13142776 C-186.62284198 901.96987337 -186.62134153 897.81154966 -186.61490726 893.64794827 C-186.6169599 892.40766606 -186.61901253 891.16738385 -186.62112737 889.88951734 C-186.625801 886.45284704 -186.62602651 883.01622919 -186.62434978 879.57955963 C-186.6236164 875.83822522 -186.62864697 872.09689775 -186.6329248 868.35556632 C-186.64049286 860.93766806 -186.64269725 853.51977701 -186.64325385 846.10187529 C-186.64416868 837.21532517 -186.65083978 828.32878168 -186.65760067 819.44223442 C-186.67365131 797.96425377 -186.67956302 776.48627383 -186.68434942 755.00828826 C-186.68668644 744.84433706 -186.69028922 734.68038641 -186.6940448 724.51643565 C-186.70687985 689.71283886 -186.71759878 654.90924238 -186.7210474 620.10564327 C-186.72126903 617.9213563 -186.72149082 615.73706932 -186.72171275 613.55278235 C-186.72193339 611.36326735 -186.72215387 609.17375236 -186.7223742 606.98423737 C-186.72281675 602.59181321 -186.72326387 598.19938904 -186.72371387 593.80696487 C-186.72382327 592.71790118 -186.72393266 591.62883749 -186.72404536 590.50677186 C-186.72767502 555.20338092 -186.74359188 519.90001053 -186.76690424 484.59662746 C-186.79151572 447.25751312 -186.80522086 409.91841051 -186.80641532 372.57928783 C-186.80658677 368.47811019 -186.80680219 364.37693256 -186.80704975 360.27575493 C-186.80710552 359.26595574 -186.80716129 358.25615655 -186.80721875 357.21575739 C-186.80836808 340.98437618 -186.81938012 324.75301609 -186.83393681 308.52164201 C-186.8483231 292.19760366 -186.85152676 275.87359232 -186.84349683 259.54954936 C-186.83905054 249.8600279 -186.842861 240.17059379 -186.85873534 230.48108386 C-186.86852292 223.99711401 -186.86727121 217.513205 -186.85729911 211.02923564 C-186.85193417 207.34240141 -186.85110835 203.65573426 -186.86380783 199.96891423 C-187.02210543 150.8532792 -173.49375005 104.58867777 -140.4834795 67.13142776 C-139.64429981 66.1710762 -138.80512012 65.21072464 -137.94051075 64.22127151 C-103.33613951 25.21787884 -52.53280837 -0.08118219 0 0 Z " fill="#35C5EF" transform="translate(186.4834794998169,-0.13142776489257813)"/>
<path d="M0 0 C3.04861705 2.12273578 6.12354733 4.20584702 9.19726562 6.29199219 C17.13545023 11.68405838 24.95501339 17.21369086 32.7097168 22.8659668 C38.06121948 26.75093204 43.50878703 30.45682304 49.03222656 34.09179688 C53.48359896 37.02869859 57.79302682 40.12141675 62.08496094 43.28759766 C66.18184655 46.23878742 70.35229288 49.07596822 74.52636719 51.91650391 C81.36153153 56.56967606 88.13574837 61.29154818 94.84277344 66.12744141 C100.94013718 70.51381022 107.12273421 74.78110943 113.28417969 79.07666016 C114.96907552 80.25244141 116.65397135 81.42822266 118.33886719 82.60400391 C119.180625 83.18988281 120.02238281 83.77576172 120.88964844 84.37939453 C125.48782224 87.59098724 130.02229059 90.85906263 134.46923828 94.27758789 C136.16393049 95.50532671 137.87828876 96.53988016 139.71386719 97.54150391 C142.31797746 98.96994363 144.66056267 100.55713034 147.02636719 102.35400391 C148.03763672 103.10230469 148.03763672 103.10230469 149.06933594 103.86572266 C151.21386719 105.54150391 151.21386719 105.54150391 153.45214844 107.62353516 C156.01008037 109.8130579 158.06714552 111.32116863 161.21386719 112.54150391 C166.17114764 112.01843355 170.55111662 110.23659766 175.21386719 108.54150391 C177.66133953 107.93348405 180.12022969 107.36940467 182.58886719 106.85400391 C183.66910156 106.62326172 184.74933594 106.39251953 185.86230469 106.15478516 C226.65635301 98.69013995 271.0073316 108.17717243 305.21386719 131.54150391 C307.87863412 133.52467059 310.45632837 135.56571559 313.00292969 137.69775391 C315.12266465 139.46544808 317.29622459 141.10406729 319.52636719 142.72900391 C322.71488517 145.10126129 325.46888936 147.65575799 328.21386719 150.54150391 C328.69984375 150.99525391 329.18582031 151.44900391 329.68652344 151.91650391 C338.48295649 160.23464391 345.55017455 170.2597734 352.15136719 180.35400391 C352.82377441 181.37469971 352.82377441 181.37469971 353.50976562 182.41601562 C356.61421565 187.26247214 358.97021632 192.25069084 361.21386719 197.54150391 C361.85586338 198.93910624 362.50122392 200.33517281 363.15136719 201.72900391 C372.34191664 222.46201508 376.4664157 243.27181303 376.52636719 265.85400391 C376.53176514 267.09255127 376.53716309 268.33109863 376.54272461 269.60717773 C376.47804345 278.06803627 375.61662918 286.2026847 374.21386719 294.54150391 C374.07859619 295.38527588 373.9433252 296.22904785 373.80395508 297.09838867 C367.50539384 334.69913644 345.29738242 370.31194099 315.21386719 393.54150391 C314.21742188 394.35361328 313.22097656 395.16572266 312.19433594 396.00244141 C286.76992203 416.54150391 286.76992203 416.54150391 275.21386719 416.54150391 C275.21939795 417.42166105 275.2249287 418.3018182 275.23062706 419.20864677 C275.36354519 440.69542427 275.46262101 462.1821302 275.52474022 483.66923332 C275.55558462 494.06056424 275.59758357 504.45161952 275.66650391 514.84277344 C275.72659586 523.90724325 275.76508463 532.9715133 275.77839816 542.0361768 C275.78617184 546.82912714 275.8042415 551.62150634 275.84824753 556.41427231 C275.88946137 560.94029561 275.90143962 565.46552133 275.89251328 569.99171448 C275.89414242 571.63868189 275.90578399 573.2856805 275.92910004 574.93248367 C276.20789147 595.66879505 269.31661781 612.81034351 255.00292969 627.96728516 C243.02589214 639.02172177 227.38876383 644.70408842 211.25679302 644.67572498 C210.34916068 644.67807721 209.44152833 644.68042944 208.50639197 644.68285295 C205.44880401 644.68953814 202.3912586 644.68908487 199.33366394 644.68867493 C197.12573329 644.69197386 194.91780325 644.69569949 192.70987397 644.69981641 C186.62941451 644.70984138 180.54896491 644.71355401 174.46849835 644.71620572 C168.58802985 644.71970687 162.7075689 644.72785412 156.82710494 644.73574965 C141.06948893 644.75659076 125.31187105 644.76706402 109.55424448 644.77587926 C102.09729519 644.78008695 94.64034671 644.78530883 87.1833981 644.79056379 C61.65022994 644.80845526 36.11706155 644.82344989 10.58388805 644.83088398 C8.98095205 644.83135873 7.37801605 644.83183462 5.77508004 644.83231164 C4.98017697 644.83254802 4.1852739 644.83278439 3.36628286 644.83302793 C-0.66100349 644.83422911 -4.68828983 644.83544457 -8.71557617 644.83666992 C-9.51480012 644.83691007 -10.31402407 644.83715022 -11.13746693 644.83739765 C-37.03770883 644.8452868 -62.93790487 644.86871005 -88.83812676 644.90122587 C-116.22987671 644.93555129 -143.62159984 644.95523772 -171.01337165 644.95852822 C-174.0225984 644.95894575 -177.03182513 644.95942531 -180.04105186 644.9599514 C-180.7819924 644.96007459 -181.52293294 644.96019778 -182.28632622 644.96032471 C-194.19314823 644.96265355 -206.09991686 644.97829603 -218.00671986 644.99879325 C-229.98478141 645.01908529 -241.96277909 645.02451263 -253.94085465 645.01502261 C-260.42581533 645.01047991 -266.91060328 645.0123628 -273.39554024 645.03178406 C-279.33921802 645.04943021 -285.28259725 645.04840582 -291.22627827 645.03288677 C-293.36974076 645.03051293 -295.513224 645.03482248 -297.65665481 645.04671542 C-319.87155879 645.16228194 -338.18960435 641.41653096 -354.84082031 625.58837891 C-368.56648933 611.16841534 -373.42540319 594.24065429 -373.28733826 574.74020386 C-373.29124041 573.19399288 -373.29688813 571.6477855 -373.30410916 570.10158646 C-373.31875028 565.89206582 -373.30875088 561.68292358 -373.29437244 557.47341561 C-373.28320158 552.91849776 -373.29522527 548.36363036 -373.30421448 543.80871582 C-373.31810685 534.90173823 -373.31062074 525.99490296 -373.29553889 517.08793221 C-373.27863162 506.7056292 -373.28189494 496.32336117 -373.28563298 485.94104864 C-373.29150408 467.41216782 -373.27736867 448.88335507 -373.25268555 430.35449219 C-373.22876006 412.39222666 -373.22168497 394.43005204 -373.23217773 376.46777344 C-373.2435967 356.88500359 -373.24550544 337.30227573 -373.23107964 317.71950638 C-373.22955387 315.62999161 -373.22803351 313.54047684 -373.22651863 311.45096207 C-373.22576082 310.4230032 -373.225003 309.39504433 -373.22422222 308.3359352 C-373.21948751 301.10582579 -373.22132501 293.87573518 -373.22558403 286.64562607 C-373.23051946 277.83132683 -373.22448705 269.01711339 -373.20468973 260.20283376 C-373.19484405 255.70916737 -373.18968314 251.21563142 -373.19758224 246.72195816 C-373.20467479 242.60274849 -373.19775155 238.4838012 -373.17997862 234.36462595 C-373.17595723 232.88032351 -373.17689485 231.39599689 -373.18349748 229.91170369 C-373.2602087 211.04121118 -368.0719226 194.37198739 -354.78613281 180.54150391 C-347.17280942 173.35765004 -338.32881263 167.70223436 -329.68066406 161.86181641 C-325.19644392 158.83129619 -320.76278165 155.73546225 -316.34863281 152.60400391 C-310.23665656 148.2726878 -304.11223821 143.96001719 -297.97363281 139.66650391 C-296.72972778 138.79638672 -296.72972778 138.79638672 -295.46069336 137.90869141 C-293.76666449 136.72386836 -292.07257214 135.53913606 -290.37841797 134.35449219 C-285.97162175 131.27247404 -281.56646694 128.18811137 -277.16113281 125.10400391 C-274.82035425 123.46543512 -272.47955516 121.82689573 -270.13867188 120.18847656 C-268.49454988 119.03745467 -266.85069091 117.88605701 -265.20703125 116.734375 C-260.57580046 113.4900787 -255.93869499 110.25512933 -251.28613281 107.04150391 C-247.56806342 104.47186876 -243.85710753 101.89285197 -240.16113281 99.29150391 C-235.37841142 95.9350722 -230.55062072 92.64622274 -225.72363281 89.35400391 C-218.83744385 84.6553829 -212.00304491 79.89134758 -205.20629883 75.06445312 C-199.90063521 71.30527232 -194.53933913 67.63342615 -189.16113281 63.97900391 C-183.45739173 60.10009317 -177.82337307 56.15466801 -172.28613281 52.04150391 C-165.96185992 47.34371746 -159.49589781 42.87969136 -152.98022461 38.45214844 C-147.64820715 34.82588261 -142.35776036 31.14763349 -137.09863281 27.41650391 C-131.03849017 23.117998 -124.93940484 18.88259611 -118.80712891 14.68774414 C-113.91160478 11.33237815 -109.06297476 7.91475569 -104.22363281 4.47900391 C-98.76054969 0.61137872 -93.27478831 -3.21812654 -87.72363281 -6.95849609 C-87.140896 -7.35560791 -86.55815918 -7.75271973 -85.95776367 -8.16186523 C-55.89822367 -28.2459893 -27.35470515 -19.17310513 0 0 Z " fill="#FEFEFE" transform="translate(588.7861328125,219.45849609375)"/>
<path d="M0 0 C3.05573684 1.71250509 5.82300269 3.62563111 8.6484375 5.69921875 C9.89510609 6.60516826 11.14254801 7.51005424 12.390625 8.4140625 C13.06319336 8.90245605 13.73576172 9.39084961 14.42871094 9.89404297 C18.35028305 12.72116093 22.31209597 15.49073296 26.2734375 18.26171875 C27.12156006 18.85557373 27.96968262 19.44942871 28.84350586 20.0612793 C34.60449852 24.08675188 40.39991218 28.05895031 46.2109375 32.01171875 C56.62565677 39.10259144 66.82133652 46.4866564 76.98046875 53.9375 C77.94339844 54.64261719 78.90632813 55.34773438 79.8984375 56.07421875 C80.69894531 56.66460937 81.49945312 57.255 82.32421875 57.86328125 C84.6825779 59.51698387 87.11546929 60.96918031 89.5859375 62.44921875 C92.16437498 64.19386802 94.71971693 65.96832878 97.27075195 67.75268555 C100.2463339 69.83112808 103.23145216 71.88857405 106.25390625 73.8984375 C106.84365234 74.29466309 107.43339844 74.69088867 108.04101562 75.09912109 C109.69171538 76.20687648 111.34768112 77.30677286 113.00390625 78.40625 C116.99171494 81.56150559 116.99171494 81.56150559 117.5859375 84.44921875 C116.68453921 86.89240267 115.73382011 88.97969538 114.5234375 91.26171875 C109.34458722 101.70214855 105.91311516 112.42048122 103.3359375 123.76171875 C103.17262939 124.4781958 103.00932129 125.19467285 102.84106445 125.93286133 C95.07664332 162.01652971 101.87266961 199.62922676 117.5859375 232.44921875 C118.05644531 233.4340625 118.52695312 234.41890625 119.01171875 235.43359375 C126.28085164 249.58588787 136.34492911 262.26762765 147.5859375 273.44921875 C148.51792969 274.38121094 149.44992187 275.31320312 150.41015625 276.2734375 C167.04688436 292.18386916 186.45192239 302.64337912 207.5859375 311.44921875 C207.5859375 347.74921875 207.5859375 384.04921875 207.5859375 421.44921875 C154.47962336 421.47124374 101.37331351 421.48971574 48.26699612 421.50028408 C42.00441342 421.50153486 35.74183073 421.50282918 29.47924805 421.50415039 C27.60901197 421.50454386 27.60901197 421.50454386 25.70099335 421.50494527 C5.48407245 421.5093025 -14.73284562 421.51719034 -34.94976484 421.52637155 C-55.67758695 421.53570661 -76.40540757 421.54127405 -97.1332317 421.54330724 C-109.93447291 421.54468278 -122.73570612 421.54903501 -135.53694487 421.55713522 C-144.30241883 421.56240086 -153.06788863 421.56402346 -161.83336406 421.56272013 C-166.89868494 421.56207646 -171.96399181 421.56309745 -177.02931023 421.56842422 C-181.65851132 421.57325712 -186.28768885 421.57355813 -190.91689099 421.57011764 C-192.5992669 421.56969184 -194.28164423 421.5709885 -195.96401732 421.57410193 C-198.23556486 421.57806418 -200.50702518 421.57598324 -202.77857113 421.57226658 C-204.04493843 421.5726463 -205.31130573 421.57302602 -206.6160478 421.57341725 C-209.4140625 421.44921875 -209.4140625 421.44921875 -210.4140625 420.44921875 C-210.52239961 418.98282132 -210.56165724 417.51126331 -210.57342339 416.04091644 C-210.58343152 415.08305851 -210.59343965 414.12520057 -210.60375106 413.13831663 C-210.60970578 412.07346682 -210.61566049 411.00861701 -210.62179565 409.91149902 C-210.63182243 408.78993424 -210.64184922 407.66836946 -210.65217984 406.51281786 C-210.68448307 402.72276051 -210.70928231 398.93269277 -210.73388672 395.14257812 C-210.74916211 393.12644732 -210.7651724 391.1103232 -210.78123544 389.09419852 C-210.98258334 363.68848778 -211.08610445 338.28194014 -211.16975212 312.87560272 C-211.18084056 309.56648184 -211.1921328 306.25736173 -211.20361328 302.94824219 C-211.20645782 302.12575881 -211.20930235 301.30327542 -211.21223308 300.4558683 C-211.25968392 287.14055816 -211.35596753 273.82604313 -211.47118436 260.5111658 C-211.58847166 246.84361654 -211.65642926 233.17648027 -211.67788327 219.50844049 C-211.6912819 211.83306516 -211.72700052 204.15916903 -211.8191185 196.48429871 C-211.8975906 189.94525505 -211.9320154 183.40786315 -211.9090936 176.86835557 C-211.89879047 173.53145139 -211.91649398 170.20102222 -211.97719193 166.86422348 C-212.31405807 147.34953161 -212.31405807 147.34953161 -209.16137552 142.5370121 C-205.76762597 139.08399321 -201.84496318 137.34454277 -197.4140625 135.44921875 C-195.4271292 134.13737544 -193.46408245 132.78783795 -191.5390625 131.38671875 C-190.47429687 130.649375 -189.40953125 129.91203125 -188.3125 129.15234375 C-175.64957628 120.37471259 -162.99406727 111.58781545 -150.42163086 102.6809082 C-145.05415326 98.8847472 -139.64011831 95.15970057 -134.21435547 91.44750977 C-129.97318962 88.53935646 -125.77471572 85.57898588 -121.6015625 82.57421875 C-116.21840649 78.70118901 -110.76936887 74.93337919 -105.2890625 71.19921875 C-92.3167401 62.35867589 -79.47903359 53.32834403 -66.6640625 44.26171875 C-60.69502684 40.03887354 -54.68951508 35.87358873 -48.65673828 31.74243164 C-40.67486444 26.2699586 -32.75580989 20.70755543 -24.83569336 15.14624023 C-23.15108095 13.9657038 -21.46422424 12.78836616 -19.77563477 11.61352539 C-16.28160964 9.18031962 -12.80844431 6.75080484 -9.42578125 4.1640625 C-8.65878906 3.57753906 -7.89179687 2.99101562 -7.1015625 2.38671875 C-5.93173828 1.47212891 -5.93173828 1.47212891 -4.73828125 0.5390625 C-2.4140625 -0.55078125 -2.4140625 -0.55078125 0 0 Z " fill="#35C6EF" transform="translate(541.4140625,327.55078125)"/>
<path d="M0 0 C4.33466812 3.33541044 8.1813561 7.09456874 12 11 C12.66515625 11.63292969 13.3303125 12.26585937 14.015625 12.91796875 C25.85913492 25.00154982 31.30071137 43.49641067 31.5 60 C31.27476083 78.65261903 24.13087582 97.51487393 11 111 C-4.47160999 125.84775475 -22.78232314 132.63082841 -44.06958008 132.40722656 C-51.03559753 132.20082605 -57.41061901 131.37013394 -64 129 C-64.84175781 128.7215625 -65.68351563 128.443125 -66.55078125 128.15625 C-85.39995417 121.35530425 -98.98470524 107.06458364 -107.6418457 89.36401367 C-114.45762512 74.6689023 -115.98384429 54.54335149 -111.18359375 38.90234375 C-107.65705233 30.25475208 -103.57991054 21.52530733 -98 14 C-97.34 14 -96.68 14 -96 14 C-95.34 12.68 -94.68 11.36 -94 10 C-93.34 10 -92.68 10 -92 10 C-91.77054688 9.41992188 -91.54109375 8.83984375 -91.3046875 8.2421875 C-85.82213916 -1.17991654 -71.14612824 -7.00862852 -61.06469727 -9.83691406 C-39.96283046 -15.17474425 -18.08404014 -12.45419821 0 0 Z " fill="#35C6EF" transform="translate(844,426)"/>
<path d="M0 0 C0.66 0.33 1.32 0.66 2 1 C1.67 1.66 1.34 2.32 1 3 C0.34 3 -0.32 3 -1 3 C-1 3.66 -1 4.32 -1 5 C-2.32 5 -3.64 5 -5 5 C-5.33 5.99 -5.66 6.98 -6 8 C-6.66 8 -7.32 8 -8 8 C-8 98.42 -8 188.84 -8 282 C128.62 282 265.24 282 406 282 C405.67 246.36 405.34 210.72 405 174 C401.7 173.34 398.4 172.68 395 172 C395 171.34 395 170.68 395 170 C394.42765625 169.86722656 393.8553125 169.73445312 393.265625 169.59765625 C391.02349125 169.00619683 388.91420381 168.26711146 386.75 167.4375 C385.69039062 167.03337891 385.69039062 167.03337891 384.609375 166.62109375 C384.07828125 166.41613281 383.5471875 166.21117187 383 166 C383 165.34 383 164.68 383 164 C381.02 163.67 379.04 163.34 377 163 C376.67 161.68 376.34 160.36 376 159 C376.969375 159.49628906 377.93875 159.99257813 378.9375 160.50390625 C380.29154999 161.19033437 381.64572364 161.8765186 383 162.5625 C383.6290625 162.88541016 384.258125 163.20832031 384.90625 163.54101562 C392.48589144 167.36727693 400.17632453 170.57714198 408 174 C408 210.3 408 246.6 408 284 C354.89368586 284.02202499 301.78737601 284.04049699 248.68105862 284.05106533 C242.41847592 284.05231611 236.15589323 284.05361043 229.89331055 284.05493164 C228.02307447 284.05532511 228.02307447 284.05532511 226.11505585 284.05572652 C205.89813495 284.06008375 185.68121688 284.06797159 165.46429766 284.0771528 C144.73647555 284.08648786 124.00865493 284.0920553 103.2808308 284.09408849 C90.47958959 284.09546403 77.67835638 284.09981626 64.87711763 284.10791647 C56.11164367 284.11318211 47.34617387 284.11480471 38.58069844 284.11350138 C33.51537756 284.11285771 28.45007069 284.1138787 23.38475227 284.11920547 C18.75555118 284.12403837 14.12637365 284.12433938 9.49717151 284.12089889 C7.8147956 284.12047309 6.13241827 284.12176975 4.45004518 284.12488318 C2.17849764 284.12884543 -0.09296268 284.12676449 -2.36450863 284.12304783 C-3.63087593 284.12342755 -4.89724323 284.12380727 -6.2019853 284.1241985 C-9 284 -9 284 -10 283 C-10.10566195 281.53163997 -10.1420855 280.05824099 -10.15098095 278.58611107 C-10.15913899 277.62701973 -10.16729702 276.6679284 -10.17570227 275.67977369 C-10.17961063 274.61355964 -10.18351899 273.54734559 -10.18754578 272.44882202 C-10.19545586 271.32584611 -10.20336594 270.20287019 -10.21151572 269.0458647 C-10.23674677 265.2511301 -10.25454694 261.45639794 -10.2722168 257.66162109 C-10.28382295 255.64306164 -10.29618725 253.62450781 -10.30863335 251.60595338 C-10.46478868 226.17856355 -10.53966333 200.75053477 -10.60025311 175.32275963 C-10.60828215 172.01155945 -10.6164504 168.70035965 -10.62475586 165.38916016 C-10.62681346 164.56615215 -10.62887106 163.74314415 -10.63099102 162.89519651 C-10.66540398 149.5657661 -10.73804758 136.23681685 -10.82566347 122.90764146 C-10.91483448 109.2287876 -10.96617995 95.55018325 -10.98155528 81.87104475 C-10.9912155 74.18818426 -11.01799855 66.50618984 -11.08786583 58.82361984 C-11.1473536 52.27955223 -11.17306909 45.73646559 -11.15452697 39.19213407 C-11.14613336 35.85232809 -11.15938754 32.51634793 -11.205513 29.17659378 C-11.25297132 25.55368899 -11.23886962 21.93605556 -11.20927429 18.31307983 C-11.23772059 17.26025011 -11.26616688 16.20742039 -11.29547518 15.12268674 C-11.19913548 10.54797458 -11.0574917 8.03225452 -7.69290698 4.74796605 C-5.19375854 2.98313216 -2.7033246 1.42858001 0 0 Z " fill="#75CADE" transform="translate(341,465)"/>
<path d="M0 0 C-5.75 4 -5.75 4 -8 4 C-7.67 95.08 -7.34 186.16 -7 280 C130.28 280.33 267.56 280.66 409 281 C409 281.66 409 282.32 409 283 C203.08 283.495 203.08 283.495 -7 284 C-7.495 282.515 -7.495 282.515 -8 281 C-8.66 281 -9.32 281 -10 281 C-10.06861843 245.76291545 -10.12150451 210.52584438 -10.15319599 175.28870712 C-10.15694825 171.13168029 -10.16083121 166.97465359 -10.16479492 162.81762695 C-10.16558185 161.99001359 -10.16636878 161.16240023 -10.16717956 160.30970768 C-10.18024494 146.89690482 -10.20390499 133.4841404 -10.23145839 120.07136037 C-10.25948114 106.31570733 -10.27616962 92.56007448 -10.28226548 78.80439407 C-10.28638844 70.31165277 -10.29942538 61.81902014 -10.3237494 53.32631228 C-10.33956799 47.50802002 -10.34440919 41.68978419 -10.34050413 35.87147196 C-10.33857648 32.51106605 -10.34322067 29.1510044 -10.35761642 25.79060555 C-10.37244353 22.15250097 -10.36898921 18.51486926 -10.36076355 14.87675476 C-10.36950207 13.80770061 -10.3782406 12.73864645 -10.38724393 11.63719672 C-10.38127078 10.666323 -10.37529764 9.69544928 -10.36914349 8.69515514 C-10.37028265 7.85483405 -10.37142181 7.01451296 -10.37259549 6.1487276 C-9.9124181 3.49492239 -9.07297159 2.66243408 -7 1 C-3.52173913 -1.17391304 -3.52173913 -1.17391304 0 0 Z " fill="#E6FEFE" transform="translate(339,468)"/>
<path d="M0 0 C0.66 0.33 1.32 0.66 2 1 C1.34 1.66 0.68 2.32 0 3 C-0.99 3 -1.98 3 -3 3 C-3.33 3.99 -3.66 4.98 -4 6 C-4.66 6 -5.32 6 -6 6 C-6 6.66 -6 7.32 -6 8 C-7.134375 8.103125 -8.26875 8.20625 -9.4375 8.3125 C-12.57398839 8.68910072 -15.23826538 9.3886447 -18.18254673 10.51937354 C-23.08274383 12.18983677 -27.49814301 12.41987149 -32.64175224 12.37752342 C-34.04129157 12.38406391 -34.04129157 12.38406391 -35.46910441 12.39073652 C-38.58899839 12.40166659 -41.70844802 12.39128112 -44.82833862 12.38095093 C-47.09023614 12.38440834 -49.35213197 12.38917346 -51.61402428 12.39513266 C-57.82460504 12.40766015 -64.03504757 12.40146428 -70.24562883 12.39217401 C-76.25681854 12.38608804 -82.2679793 12.39407708 -88.27916329 12.4016161 C-101.3295128 12.41740456 -114.37981823 12.41604799 -127.43017193 12.40737936 C-138.84699846 12.39983293 -150.26380884 12.39786251 -161.68063736 12.4014473 C-162.81655385 12.40179103 -162.81655385 12.40179103 -163.97541814 12.40214171 C-167.04938276 12.40307571 -170.12334737 12.40403091 -173.19731197 12.405021 C-202.02711367 12.41419618 -230.85688728 12.40587948 -259.68668465 12.38973031 C-285.31262251 12.37548502 -310.93851565 12.37677483 -336.56445312 12.39111328 C-365.35055608 12.40716608 -394.13663425 12.41355414 -422.92274106 12.40427649 C-425.98924644 12.40331431 -429.05575184 12.4023758 -432.12225723 12.4014473 C-433.25485104 12.40109145 -433.25485104 12.40109145 -434.41032554 12.40072841 C-445.82546628 12.39731226 -457.24058912 12.40131357 -468.65572739 12.40888596 C-481.62716753 12.41744779 -494.59855668 12.41535297 -507.56999044 12.39904372 C-514.1930681 12.39099173 -520.81607483 12.38811341 -527.43915749 12.39799118 C-533.4936031 12.4068847 -539.54787272 12.40209406 -545.60230221 12.38605852 C-547.80058977 12.38268804 -549.99889199 12.38445511 -552.19717024 12.39168589 C-555.16942756 12.4007179 -558.14107022 12.3915446 -561.1132946 12.37752342 C-562.41397953 12.38805867 -562.41397953 12.38805867 -563.74094093 12.39880675 C-569.60792809 12.34292407 -569.60792809 12.34292407 -571.74185122 10.47649703 C-572.36463487 9.745631 -572.36463487 9.745631 -573 9 C-572.08386541 9.10594549 -572.08386541 9.10594549 -571.14922304 9.21403129 C-565.21703313 9.859626 -559.38634463 10.14486598 -553.42210007 10.13422108 C-552.05109893 10.13774942 -552.05109893 10.13774942 -550.65240079 10.14134905 C-547.60327697 10.14798253 -544.55419631 10.14758255 -541.50506592 10.14717102 C-539.29139461 10.15047313 -537.07772391 10.15419943 -534.86405396 10.1583125 C-528.79103002 10.16830041 -522.71801595 10.17204408 -516.64498496 10.17470181 C-510.76473641 10.17821218 -504.88449533 10.18636016 -499.00425129 10.19424575 C-483.26003773 10.21504515 -467.51582235 10.22555167 -451.77159826 10.23437535 C-444.32010968 10.23858711 -436.86862189 10.24380828 -429.41713398 10.24905988 C-403.89667104 10.26694351 -378.37620786 10.28193961 -352.85573959 10.28938007 C-351.25499801 10.28985483 -349.65425643 10.29033071 -348.05351485 10.29080774 C-346.86282243 10.2911623 -346.86282243 10.2911623 -345.64807561 10.29152403 C-341.6265491 10.29272518 -337.6050226 10.29394065 -333.58349609 10.29516602 C-332.38638954 10.29552624 -332.38638954 10.29552624 -331.16509901 10.29589374 C-305.28429282 10.30378833 -279.40353242 10.32722681 -253.52274623 10.35972196 C-226.14224001 10.39403723 -198.76176058 10.4137326 -171.3812325 10.41702431 C-168.37436627 10.41744184 -165.36750006 10.4179214 -162.36063385 10.41844749 C-161.62029097 10.41857069 -160.87994809 10.41869388 -160.11717057 10.4188208 C-148.21673721 10.42115027 -136.31635722 10.43679555 -124.41594286 10.45728934 C-112.4508484 10.47756743 -100.48581788 10.48301519 -88.52070943 10.47351871 C-82.04203754 10.46897256 -75.56353856 10.47087914 -69.08489037 10.49028015 C-63.14953501 10.50790068 -57.21447884 10.50692273 -51.27912036 10.49138286 C-49.13651584 10.4890052 -46.99389067 10.49333844 -44.85131773 10.50521151 C-30.62986663 10.57911371 -17.97644265 9.77141767 -5.25 2.6875 C-3.52894726 1.7372396 -1.78510379 0.82366366 0 0 Z " fill="#56B9DA" transform="translate(835,853)"/>
<path d="M0 0 C2.31 0 4.62 0 7 0 C-3.38900978 6.92600652 -16.73413073 5.41582377 -28.66902161 5.36749268 C-30.88925839 5.36951838 -33.10949429 5.37285933 -35.32972735 5.37739825 C-41.41599138 5.38603161 -47.50210235 5.3759944 -53.58835304 5.36285591 C-59.48240532 5.35306754 -65.37643613 5.35741374 -71.27049274 5.36136696 C-83.32362973 5.36894516 -95.37672082 5.36246087 -107.42984962 5.34775543 C-119.36382214 5.3332126 -131.29777454 5.32446826 -143.23175621 5.32357025 C-143.97459755 5.32350916 -144.71743888 5.32344806 -145.48279056 5.32338512 C-148.49826935 5.3231556 -151.51374813 5.32296842 -154.52922693 5.32283698 C-181.99663009 5.32162626 -209.46400517 5.30593966 -236.93139648 5.28125 C-262.8610862 5.25794739 -288.79075887 5.24378176 -314.72045898 5.24023438 C-315.51962184 5.24012286 -316.3187847 5.24001134 -317.14216461 5.23989645 C-320.36408696 5.23944759 -323.5860093 5.23900562 -326.80793165 5.23856402 C-328.41356149 5.23834364 -330.01919133 5.23812235 -331.62482117 5.23790014 C-333.22651404 5.23767878 -334.82820692 5.23746001 -336.42989979 5.23724384 C-361.92756618 5.23372975 -387.42522936 5.22226983 -412.92289254 5.2094375 C-420.38791523 5.20571831 -427.8529377 5.20245357 -435.31796098 5.20018864 C-451.01425134 5.19538134 -466.71053151 5.1883021 -482.40681479 5.17204097 C-488.8986156 5.16542685 -495.39040732 5.1603669 -501.88221169 5.15958023 C-507.82010387 5.1587949 -513.75797305 5.1534039 -519.69585808 5.14426073 C-521.84837956 5.14174696 -524.00090379 5.14092169 -526.15342651 5.14191952 C-529.07094859 5.14301114 -531.98839806 5.13800657 -534.90591145 5.13142776 C-535.74853854 5.13319724 -536.59116564 5.13496671 -537.45932689 5.1367898 C-541.75221771 5.12019952 -545.77176956 4.85514348 -550 4 C-550 3.67 -550 3.34 -550 3 C-548.54263913 2.80508548 -547.08405407 2.61930642 -545.625 2.4375 C-544.81289063 2.33308594 -544.00078125 2.22867188 -543.1640625 2.12109375 C-541 2 -541 2 -539 3 C-536.15308944 3.09793082 -533.33062903 3.13373555 -530.48342705 3.12584114 C-529.13877103 3.1280213 -529.13877103 3.1280213 -527.76695025 3.13024551 C-524.72945374 3.13392735 -521.69200673 3.130409 -518.6545105 3.12698364 C-516.46821667 3.12813461 -514.28192304 3.12972196 -512.09562981 3.13171089 C-506.06135253 3.13590778 -500.02709095 3.13381188 -493.99281359 3.13072467 C-487.49501975 3.12847217 -480.99722871 3.13194949 -474.49943542 3.13470459 C-462.4955785 3.13910036 -450.49172657 3.13852561 -438.48786934 3.13579312 C-427.39628171 3.13328063 -416.30469592 3.13261942 -405.21310806 3.13381577 C-404.4782564 3.13389215 -403.74340474 3.13396854 -402.98628484 3.13404724 C-400.00344836 3.13435856 -397.02061188 3.13467696 -394.0377754 3.135007 C-366.03199737 3.13806881 -338.02622256 3.13528843 -310.02044503 3.1299101 C-285.13407101 3.12516716 -260.2477021 3.12558631 -235.36132812 3.13037109 C-207.41684011 3.13572585 -179.47235494 3.13784872 -151.52786648 3.13475883 C-148.5485065 3.13443811 -145.56914651 3.13412527 -142.58978653 3.13381577 C-141.85616601 3.13373669 -141.12254549 3.13365761 -140.36669404 3.13357614 C-129.28571024 3.13243842 -118.20472849 3.13376946 -107.12374496 3.13629532 C-94.52010282 3.1391539 -81.91646692 3.13834504 -69.31282549 3.13301457 C-62.87957052 3.13038362 -56.44632595 3.12936226 -50.01307106 3.13266373 C-44.12591289 3.13563925 -38.23877477 3.13401279 -32.35161842 3.12868617 C-30.21965246 3.12756734 -28.08768481 3.12814139 -25.95571993 3.13056196 C-23.06099572 3.13359689 -20.1663404 3.13048929 -17.2716198 3.12584114 C-16.02614036 3.12935289 -16.02614036 3.12935289 -14.75549972 3.13293558 C-9.75215228 3.11684798 -4.95375429 2.71273164 0 2 C0 1.34 0 0.68 0 0 Z " fill="#DDFEFE" transform="translate(816,859)"/>
<path d="M0 0 C0.99257813 0.50789062 1.98515625 1.01578125 3.0078125 1.5390625 C11.0321088 5.61428069 19.0854369 9.42993838 27.40234375 12.87109375 C30 14 30 14 31 15 C31 50.97 31 86.94 31 124 C-86.48 124 -203.96 124 -325 124 C-325 123.67 -325 123.34 -325 123 C-207.85 123 -90.7 123 30 123 C29.67 87.36 29.34 51.72 29 15 C25.7 14.34 22.4 13.68 19 13 C19 12.34 19 11.68 19 11 C18.42765625 10.86722656 17.8553125 10.73445312 17.265625 10.59765625 C15.02349125 10.00619683 12.91420381 9.26711146 10.75 8.4375 C9.69039062 8.03337891 9.69039062 8.03337891 8.609375 7.62109375 C8.07828125 7.41613281 7.5471875 7.21117187 7 7 C7 6.34 7 5.68 7 5 C5.02 4.67 3.04 4.34 1 4 C0.67 2.68 0.34 1.36 0 0 Z " fill="#4ABDE4" transform="translate(717,624)"/>
<path d="M0 0 C0.91585285 3.31803928 0.96907495 5.81670039 0.5625 9.25 C0.46066406 10.14203125 0.35882813 11.0340625 0.25390625 11.953125 C0.12822266 12.96632813 0.12822266 12.96632813 0 14 C-0.66 14 -1.32 14 -2 14 C-1.89545437 61.11880603 -1.7856915 108.23759737 -1.66888306 155.35637468 C-1.65511267 160.91295737 -1.64138569 166.46954018 -1.62768555 172.02612305 C-1.62495724 173.1323882 -1.62222894 174.23865336 -1.61941796 175.3784417 C-1.57528371 193.3159047 -1.53467054 211.25337405 -1.49534739 229.19084816 C-1.45495213 247.58181456 -1.41079906 265.97276912 -1.36312145 284.36371809 C-1.33379623 295.72160614 -1.30743946 307.07949324 -1.28482103 318.43739665 C-1.26905293 326.21471508 -1.24965107 333.99201901 -1.22733159 341.76932137 C-1.21454324 346.26351091 -1.20341454 350.75768922 -1.19658089 355.25189209 C-1.19030024 359.35928635 -1.1794985 363.46664197 -1.1649667 367.57401509 C-1.16050804 369.06661639 -1.15776663 370.55922392 -1.15683801 372.0518316 C-1.15534303 374.06740463 -1.14721311 376.08296959 -1.1386652 378.09852505 C-1.13600716 379.2221175 -1.13334911 380.34570996 -1.13061053 381.50335068 C-1.28232153 383.94074509 -1.28232153 383.94074509 0 385 C0.04092937 387.33297433 0.04241723 389.66705225 0 392 C0.66 392 1.32 392 2 392 C2.625 394.875 2.625 394.875 3 398 C2.34 398.66 1.68 399.32 1 400 C-2.44081606 389.93902214 -3.57638468 380.81710262 -3.50120544 370.19869995 C-3.5051076 368.65248897 -3.51075532 367.1062816 -3.51797634 365.56008255 C-3.53261747 361.35056191 -3.52261807 357.14141968 -3.50823963 352.93191171 C-3.49706876 348.37699385 -3.50909246 343.82212645 -3.51808167 339.26721191 C-3.53197404 330.36023432 -3.52448792 321.45339905 -3.50940608 312.54642831 C-3.4924988 302.16412529 -3.49576213 291.78185726 -3.49950016 281.39954473 C-3.50537126 262.87066391 -3.49123585 244.34185116 -3.46655273 225.81298828 C-3.44262725 207.85072275 -3.43555216 189.88854814 -3.44604492 171.92626953 C-3.45746389 152.34349968 -3.45937262 132.76077183 -3.44494683 113.17800248 C-3.44342106 111.08848771 -3.4419007 108.99897294 -3.44038582 106.90945816 C-3.439628 105.88149929 -3.43887019 104.85354043 -3.43808941 103.79443129 C-3.4333547 96.56432188 -3.4351922 89.33423128 -3.43945122 82.10412216 C-3.44438665 73.28982292 -3.43835424 64.47560949 -3.41855692 55.66132985 C-3.40871124 51.16766347 -3.40355033 46.67412752 -3.41144943 42.18045425 C-3.41854198 38.06124459 -3.41161874 33.94229729 -3.3938458 29.82312204 C-3.38982441 28.33881961 -3.39076204 26.85449298 -3.39736467 25.37019978 C-3.4335789 16.46171816 -2.63753972 8.53053808 0 0 Z " fill="#E5FFFF" transform="translate(219,424)"/>
<path d="M0 0 C0.99 0.33 1.98 0.66 3 1 C-2.75 5 -2.75 5 -5 5 C-5 96.08 -5 187.16 -5 281 C-5.33 281 -5.66 281 -6 281 C-6 189.26 -6 97.52 -6 3 C-4.02 2.01 -2.04 1.02 0 0 Z " fill="#DBFEFE" transform="translate(336,467)"/>
<path d="M0 0 C0.66 0 1.32 0 2 0 C2.33 35.97 2.66 71.94 3 109 C2.01 109 1.02 109 0 109 C0 73.03 0 37.06 0 0 Z " fill="#E6FEFE" transform="translate(749,639)"/>
<path d="M0 0 C0.33 0.66 0.66 1.32 1 2 C0.0256645 2.67635592 -0.948671 3.35271185 -1.95253181 4.04956341 C-4.56952145 6.24729919 -4.95854338 6.81673949 -5.75390434 10.33266163 C-5.75666972 12.25045193 -5.75666972 12.25045193 -5.75949097 14.20698547 C-5.76870107 14.92179571 -5.77791117 15.63660594 -5.78740036 16.37307709 C-5.81095338 18.76289869 -5.79188638 21.15044907 -5.77294922 23.5402832 C-5.78112091 25.25529877 -5.79192383 26.97030352 -5.80516052 28.68528748 C-5.83361352 33.33795939 -5.82523917 37.98992403 -5.81029272 42.64263177 C-5.80091885 47.5060671 -5.82535768 52.36932911 -5.84622192 57.23271179 C-5.88058133 66.44076244 -5.88449676 75.64856479 -5.87749684 84.85666674 C-5.87100787 95.3403347 -5.89842381 105.823828 -5.92869925 116.30744421 C-5.99021395 137.87164878 -6.00911324 159.43571723 -6 181 C-6.66 181 -7.32 181 -8 181 C-7.67 122.26 -7.34 63.52 -7 3 C-4.69 2.01 -2.38 1.02 0 0 Z " fill="#52BCDA" transform="translate(871,633)"/>
<path d="M0 0 C0.99257813 0.50789062 1.98515625 1.01578125 3.0078125 1.5390625 C11.0321088 5.61428069 19.0854369 9.42993838 27.40234375 12.87109375 C30 14 30 14 31 15 C31.09550698 16.41678911 31.12188483 17.83831241 31.12025452 19.25831604 C31.12162918 20.1768335 31.12300385 21.09535095 31.12442017 22.04170227 C31.12082489 23.05733749 31.11722961 24.07297272 31.11352539 25.11938477 C31.11367142 26.18266998 31.11381744 27.2459552 31.1139679 28.34146118 C31.11326825 31.87479658 31.10547343 35.40808 31.09765625 38.94140625 C31.09579225 41.38378368 31.09436827 43.82616149 31.09336853 46.26853943 C31.08954189 52.71134464 31.07971037 59.15412748 31.06866455 65.59692383 C31.05845356 72.16552426 31.05387158 78.7341283 31.04882812 85.30273438 C31.03808823 98.20183249 31.02120104 111.10091506 31 124 C29.68 123.67 28.36 123.34 27 123 C27.99 123 28.98 123 30 123 C29.67 87.36 29.34 51.72 29 15 C25.7 14.34 22.4 13.68 19 13 C19 12.34 19 11.68 19 11 C18.42765625 10.86722656 17.8553125 10.73445312 17.265625 10.59765625 C15.02349125 10.00619683 12.91420381 9.26711146 10.75 8.4375 C10.04359375 8.16808594 9.3371875 7.89867187 8.609375 7.62109375 C8.07828125 7.41613281 7.5471875 7.21117187 7 7 C7 6.34 7 5.68 7 5 C4.03 4.505 4.03 4.505 1 4 C0.67 2.68 0.34 1.36 0 0 Z " fill="#4BC1D6" transform="translate(717,624)"/>
<path d="M0 0 C0.66 0 1.32 0 2 0 C2.49144503 2.35213626 2.96794106 4.7059693 3.4375 7.0625 C3.57220703 7.69994141 3.70691406 8.33738281 3.84570312 8.99414062 C6.55079756 22.78352447 5.88401581 36.0762365 4.5625 49.9375 C4.41235127 51.60342041 4.26325694 53.2694362 4.11523438 54.93554688 C3.75558687 58.95823011 3.38186565 62.97936763 3 67 C2.34 67 1.68 67 1 67 C0.72736328 68.2684375 0.72736328 68.2684375 0.44921875 69.5625 C-0.96271559 75.93430626 -2.51435237 81.96342719 -5 88 C-5.66 88 -6.32 88 -7 88 C-6.7208374 87.22450806 -6.7208374 87.22450806 -6.43603516 86.43334961 C-4.27663699 80.22764085 -2.74817135 73.98334751 -1.375 67.5625 C-1.1584375 66.58990234 -0.941875 65.61730469 -0.71875 64.61523438 C1.68967183 53.4874335 2.193215 42.74927422 2.1875 31.375 C2.18858765 30.38569489 2.18858765 30.38569489 2.18969727 29.37640381 C2.18848938 19.43341101 1.75236525 9.79447004 0 0 Z " fill="#4FC0DA" transform="translate(962,454)"/>
<path d="M0 0 C1.61926392 0.00068733 1.61926392 0.00068733 3.27124023 0.00138855 C5.5437938 0.00439702 7.81634556 0.01224093 10.08886719 0.0246582 C13.55150732 0.0429108 17.01387925 0.04516759 20.4765625 0.04492188 C22.69271063 0.04983824 24.90885695 0.05566707 27.125 0.0625 C28.15230225 0.06361282 29.17960449 0.06472565 30.23803711 0.06587219 C45.49779449 0.16576324 45.49779449 0.16576324 48.5625 3.23046875 C51.21787372 3.79566878 53.85394713 3.96835073 56.5625 4.23046875 C56.5625 4.89046875 56.5625 5.55046875 56.5625 6.23046875 C57.7071875 5.92109375 57.7071875 5.92109375 58.875 5.60546875 C61.5625 5.23046875 61.5625 5.23046875 64.5625 7.23046875 C64.5625 7.89046875 64.5625 8.55046875 64.5625 9.23046875 C58.68841772 8.48565047 53.0578675 7.21281125 47.31835938 5.77929688 C36.10933656 3.05221732 25.30889363 1.9037886 13.79003906 1.96972656 C11.56547808 1.98045439 9.34172428 1.96976528 7.1171875 1.95703125 C-0.33396643 1.95082196 -7.49579749 2.29312116 -14.82421875 3.80175781 C-17.73226332 4.27882491 -20.495695 4.29830686 -23.4375 4.23046875 C-16.10660918 -0.04588423 -8.2248674 -0.05752924 0 0 Z " fill="#50C0DB" transform="translate(791.4375,322.76953125)"/>
<path d="M0 0 C0.33 0 0.66 0 1 0 C1.14922563 3.65602789 1.12475938 6.6069833 0.01171875 10.11328125 C-1.37440086 14.75197246 -1.34162209 19.31463879 -1.3125 24.125 C-1.30903564 25.05207764 -1.30557129 25.97915527 -1.30200195 26.93432617 C-1.1587372 36.02491005 0.39059121 44.07883173 3.75 52.5625 C5.01474069 56.04053689 5.06571219 56.70925357 4 60 C-5.0665617 44.12455798 -6.91601665 24.44470094 -2.5625 6.6875 C-1.84559197 4.31512317 -1.10628492 2.21256983 0 0 Z " fill="#51C0DA" transform="translate(735,460)"/>
<path d="M0 0 C0.78310547 0.30744141 0.78310547 0.30744141 1.58203125 0.62109375 C6.95788704 2.58878878 11.90653444 3.4473995 17.6171875 3.7890625 C20 4 20 4 23 5 C23 5.66 23 6.32 23 7 C40.02083714 6.32504241 40.02083714 6.32504241 57 5 C49.91420886 9.13337816 42.22169488 9.35921452 34.25 9.3125 C33.27643555 9.30831055 32.30287109 9.30412109 31.29980469 9.29980469 C24.17448113 9.18798826 17.73787144 8.43797791 11 6 C9.56333984 5.49533203 9.56333984 5.49533203 8.09765625 4.98046875 C1.19844694 2.39689387 1.19844694 2.39689387 0 0 Z " fill="#55C3DF" transform="translate(769,549)"/>
<path d="M0 0 C-3.40401948 1.13732426 -5.77456664 0.83989957 -9.25 0.0625 C-10.14203125 -0.13214844 -11.0340625 -0.32679688 -11.953125 -0.52734375 C-12.62859375 -0.68332031 -13.3040625 -0.83929688 -14 -1 C-14 -0.34 -14 0.32 -14 1 C-14.680625 0.89300781 -15.36125 0.78601563 -16.0625 0.67578125 C-24.08527924 -0.31639757 -30.91839399 0.63033706 -38.7265625 2.30859375 C-42 3 -42 3 -44 3 C-44 3.66 -44 4.32 -44 5 C-45.98 5 -47.96 5 -50 5 C-36.96315301 -6.16976087 -15.21063555 -5.0105623 0 0 Z " fill="#D3F7FB" transform="translate(560,203)"/>
<path d="M0 0 C0.6875 1.6875 0.6875 1.6875 1 4 C-0.53241105 7.14144264 -2.29454133 9.76505588 -5 12 C-5.66 12 -6.32 12 -7 12 C-7.12375 12.763125 -7.2475 13.52625 -7.375 14.3125 C-8 17 -8 17 -10 20 C-10.99 20 -11.98 20 -13 20 C-13 20.99 -13 21.98 -13 23 C-14.32 23.33 -15.64 23.66 -17 24 C-17.33 25.65 -17.66 27.3 -18 29 C-18.99 29.33 -19.98 29.66 -21 30 C-21.309375 30.639375 -21.61875 31.27875 -21.9375 31.9375 C-23.25613543 34.49720408 -24.29687811 35.09895937 -27 36 C-27.99 35.67 -28.98 35.34 -30 35 C-29.34 35 -28.68 35 -28 35 C-27.67 34.01 -27.34 33.02 -27 32 C-25.36347238 30.63622698 -23.72630023 29.27322019 -22.0859375 27.9140625 C-13.60522927 20.13213922 -6.38214254 9.57321381 0 0 Z " fill="#56C2D9" transform="translate(940,572)"/>
<path d="M0 0 C4.92325492 8.72557923 2.72017275 22.5763521 0.375 31.9375 C-1.75955269 38.94006134 -4.69772281 45.47249876 -8 52 C-9.13583456 48.28272326 -8.66670026 46.52948291 -7 43 C-6.34 43 -5.68 43 -5 43 C-4.855625 41.865625 -4.71125 40.73125 -4.5625 39.5625 C-4 36 -4 36 -3 35 C-2.835 33.845 -2.67 32.69 -2.5 31.5 C-2 28 -2 28 -1 27 C-0.84174742 25.00217874 -0.74880829 22.99911166 -0.68359375 20.99609375 C-0.62075195 19.17368164 -0.62075195 19.17368164 -0.55664062 17.31445312 C-0.51732422 16.03505859 -0.47800781 14.75566406 -0.4375 13.4375 C-0.39431641 12.15423828 -0.35113281 10.87097656 -0.30664062 9.54882812 C-0.200152 6.36600147 -0.09814038 3.18309326 0 0 Z " fill="#5AC2D9" transform="translate(873,472)"/>
<path d="M0 0 C0.33 0 0.66 0 1 0 C-0.0182889 16.18728214 -6.22592707 31.40968907 -13 46 C-13.33 46 -13.66 46 -14 46 C-13.76474704 40.1539639 -13.26546323 35.71387693 -10.04296875 30.78125 C-8.44534345 28.05272139 -7.65042888 25.12488996 -6.71875 22.1171875 C-6 20 -6 20 -4.4375 17.0625 C-2.77783381 13.52668942 -2.10941618 10.19513325 -1.4296875 6.3671875 C-1.03881555 4.21383837 -0.55579378 2.11591666 0 0 Z " fill="#D4FAFC" transform="translate(961,514)"/>
<path d="M0 0 C0.33 0 0.66 0 1 0 C1.27480879 7.96945498 0.24032474 12.74541886 -5 19 C-5.33 19.99 -5.66 20.98 -6 22 C-6.66 22 -7.32 22 -8 22 C-8.165 22.845625 -8.33 23.69125 -8.5 24.5625 C-10.59521125 29.36402579 -13.95208847 31.80346566 -18 35 C-18.99 35.804375 -19.98 36.60875 -21 37.4375 C-21.99 38.2109375 -21.99 38.2109375 -23 39 C-23.66 38.67 -24.32 38.34 -25 38 C-24.38253906 37.50113281 -23.76507812 37.00226562 -23.12890625 36.48828125 C-11.00970617 26.21370827 -4.83690651 14.77627519 0 0 Z " fill="#58C1DD" transform="translate(862,814)"/>
<path d="M0 0 C2.31 0.33 4.62 0.66 7 1 C7 1.66 7 2.32 7 3 C7.5775 3.103125 8.155 3.20625 8.75 3.3125 C11.35661158 4.10896465 12.9735311 5.19065277 15 7 C15 7.66 15 8.32 15 9 C15.55042969 9.25523437 16.10085938 9.51046875 16.66796875 9.7734375 C25.76796646 14.55970095 34.61204268 21.51025497 39 31 C38.55269531 30.61328125 38.10539063 30.2265625 37.64453125 29.828125 C34.92119305 27.48222173 32.20192152 25.15865263 29.375 22.9375 C27 21 27 21 24.7421875 18.69140625 C21.89842341 15.90030446 18.90897197 13.41698197 15.75 11 C15.18514893 10.56574707 14.62029785 10.13149414 14.03833008 9.68408203 C9.5940857 6.32553637 5.00725475 3.45834213 0 1 C0 0.67 0 0.34 0 0 Z " fill="#59C2E2" transform="translate(885,346)"/>
<path d="M0 0 C0.66 0.33 1.32 0.66 2 1 C-2.09302326 7.69767442 -2.09302326 7.69767442 -6.5625 9.1875 C-8.2640625 9.5896875 -8.2640625 9.5896875 -10 10 C-12.27238472 11.91358713 -13.67797068 13.35594135 -15 16 C-16.94677744 16.72591701 -18.89522785 17.44798546 -20.85546875 18.13671875 C-23.91060127 19.36656263 -26.33948226 21.07112464 -29 23 C-29.66 22.67 -30.32 22.34 -31 22 C-23.92820446 16.77106643 -16.74985521 11.72516412 -9.484375 6.77026367 C-6.27113952 4.57621642 -3.08441825 2.37444985 0 0 Z " fill="#53C1DE" transform="translate(463,380)"/>
<path d="M0 0 C0.66 0.33 1.32 0.66 2 1 C-5.07179554 6.22893357 -12.25014479 11.27483588 -19.515625 16.22973633 C-20.16917969 16.67599365 -20.82273437 17.12225098 -21.49609375 17.58203125 C-22.10952637 18.00049316 -22.72295898 18.41895508 -23.35498047 18.85009766 C-24.7151597 19.8008908 -26.03721992 20.80595957 -27.34765625 21.82421875 C-29 23 -29 23 -31 23 C-31 22.34 -31 21.68 -31 21 C-30.34 21 -29.68 21 -29 21 C-29 19.68 -29 18.36 -29 17 C-27.35 17 -25.7 17 -24 17 C-23.67 16.34 -23.34 15.68 -23 15 C-22.01 15 -21.02 15 -20 15 C-20 14.34 -20 13.68 -20 13 C-19.34 13 -18.68 13 -18 13 C-18 12.34 -18 11.68 -18 11 C-16.5459375 10.319375 -16.5459375 10.319375 -15.0625 9.625 C-11.92920418 8.34213779 -11.92920418 8.34213779 -11 6 C-8.66666667 5 -6.33333333 4 -4 3 C-3.67 2.34 -3.34 1.68 -3 1 C-2.01 0.67 -1.02 0.34 0 0 Z " fill="#56C3D9" transform="translate(379,296)"/>
<path d="M0 0 C0.66 0.33 1.32 0.66 2 1 C-0.0586217 4.08793255 -0.8553312 4.47838607 -4 6 C-4.33 6.66 -4.66 7.32 -5 8 C-5.99 8 -6.98 8 -8 8 C-8.33 8.99 -8.66 9.98 -9 11 C-10.98246398 12.03432904 -12.98413316 13.03238392 -15 14 C-15.69802734 14.70382812 -15.69802734 14.70382812 -16.41015625 15.421875 C-18.29624088 17.29405729 -20.24650891 18.45273975 -22.5625 19.75 C-23.34753906 20.19859375 -24.13257813 20.6471875 -24.94140625 21.109375 C-25.96041016 21.55023438 -25.96041016 21.55023438 -27 22 C-27.66 21.67 -28.32 21.34 -29 21 C-19.38936758 13.91989824 -9.73176768 6.91270401 0 0 Z " fill="#D4FAFC" transform="translate(312,344)"/>
<path d="M0 0 C4.5206665 -0.02468857 9.0412939 -0.04285449 13.56201172 -0.05493164 C15.10043013 -0.05996552 16.63884375 -0.06679308 18.17724609 -0.07543945 C20.38640526 -0.08754639 22.59550126 -0.09323769 24.8046875 -0.09765625 C25.83914505 -0.10539818 25.83914505 -0.10539818 26.89450073 -0.11329651 C31.77225659 -0.11387171 31.77225659 -0.11387171 34 1 C34 1.66 34 2.32 34 3 C32.72125 2.835 31.4425 2.67 30.125 2.5 C16.03283657 1.16641956 3.56410443 1.86054579 -10 6 C-10 5.34 -10 4.68 -10 4 C-6.38026598 2.68373308 -3.90432869 2 0 2 C0 1.34 0 0.68 0 0 Z " fill="#51C3DE" transform="translate(524,199)"/>
<path d="M0 0 C6.64932338 3.38298909 12.49345219 7.45134639 18.45556641 11.89501953 C23.19972414 15.429953 28.02062429 18.80186438 33 22 C31.140625 22.58203125 31.140625 22.58203125 29 23 C26.75 21.6875 26.75 21.6875 25 20 C25 19.34 25 18.68 25 18 C24.01 18 23.02 18 22 18 C22 17.34 22 16.68 22 16 C19.29574395 14.8864828 16.71134704 13.92495023 13.875 13.1875 C10.32545772 11.72138471 9.92590878 10.20984796 8 7 C6.989375 6.67 5.97875 6.34 4.9375 6 C2 5 2 5 0.625 2.375 C0.41875 1.59125 0.2125 0.8075 0 0 Z " fill="#5BBFD6" transform="translate(551,335)"/>
<path d="M0 0 C1.02222656 0.05220703 2.04445313 0.10441406 3.09765625 0.15820312 C5.60713196 0.28719487 8.1161394 0.42212858 10.625 0.5625 C10.625 0.8925 10.625 1.2225 10.625 1.5625 C8.97177734 1.60117187 8.97177734 1.60117187 7.28515625 1.640625 C-2.51119214 1.97235435 -11.51905134 3.22296448 -20.99609375 5.72265625 C-24.375 6.5625 -24.375 6.5625 -27.375 6.5625 C-27.375 5.9025 -27.375 5.2425 -27.375 4.5625 C-23.9730513 2.46899311 -21.32227588 2.38307837 -17.375 2.5625 C-17.375 1.9025 -17.375 1.2425 -17.375 0.5625 C-11.54644343 -0.78025621 -5.91645213 -0.33208473 0 0 Z " fill="#D1F9FC" transform="translate(801.375,412.4375)"/>
<path d="M0 0 C4.59306496 1.4859916 7.43569245 3.85014682 11 7 C9.84204813 10.894929 8.33623423 14.51229541 6.625 18.1875 C4.08111821 23.68288855 1.98026512 29.2804633 0 35 C-0.33 35 -0.66 35 -1 35 C-0.68613226 28.51340008 0.64567086 24.14051832 3.72265625 18.44140625 C5.49189062 15.05984208 6.7345301 11.59659865 8 8 C7.236875 7.236875 6.47375 6.47375 5.6875 5.6875 C3.79166667 3.79166667 1.89583333 1.89583333 0 0 Z " fill="#5EC0DC" transform="translate(648,403)"/>
<path d="M0 0 C0.33 0.66 0.66 1.32 1 2 C0.34 2 -0.32 2 -1 2 C-1.309375 2.86625 -1.309375 2.86625 -1.625 3.75 C-3.54262887 6.88793816 -5.82681522 8.19564003 -9 10 C-9.9075 10.165 -10.815 10.33 -11.75 10.5 C-12.4925 10.665 -13.235 10.83 -14 11 C-15.10836423 12.88316159 -15.10836423 12.88316159 -16 15 C-17.875 16.8125 -17.875 16.8125 -20 18 C-22.1328125 17.57421875 -22.1328125 17.57421875 -24 17 C-21.50417888 15.09861663 -19.00258518 13.20496911 -16.5 11.3125 C-15.80390625 10.78205078 -15.1078125 10.25160156 -14.390625 9.70507812 C-9.74351695 6.1982327 -4.9904399 2.99812599 0 0 Z " fill="#D7FBFD" transform="translate(419,270)"/>
<path d="M0 0 C0.99257813 0.50789062 1.98515625 1.01578125 3.0078125 1.5390625 C4.37967091 2.23543474 5.75211028 2.93066318 7.125 3.625 C8.19923218 4.16870239 8.19923218 4.16870239 9.29516602 4.72338867 C15.21863398 7.68610131 21.24122027 10.2516188 27.40234375 12.67578125 C30 14 30 14 31 17 C30.34 17 29.68 17 29 17 C29 16.34 29 15.68 29 15 C25.7 14.34 22.4 13.68 19 13 C19 12.34 19 11.68 19 11 C18.42765625 10.86722656 17.8553125 10.73445312 17.265625 10.59765625 C15.02349125 10.00619683 12.91420381 9.26711146 10.75 8.4375 C10.04359375 8.16808594 9.3371875 7.89867187 8.609375 7.62109375 C8.07828125 7.41613281 7.5471875 7.21117187 7 7 C7 6.34 7 5.68 7 5 C4.03 4.505 4.03 4.505 1 4 C0.67 2.68 0.34 1.36 0 0 Z " fill="#5BBED4" transform="translate(717,624)"/>
<path d="M0 0 C0.66 0.33 1.32 0.66 2 1 C-6.94107243 7.42095006 -15.92987995 13.76240914 -25 20 C-25.66 19.67 -26.32 19.34 -27 19 C-25.50529266 16.01058532 -22.92442937 15.46221468 -20 14 C-19.67 13.34 -19.34 12.68 -19 12 C-18.01 11.67 -17.02 11.34 -16 11 C-15.34 10.01 -14.68 9.02 -14 8 C-11.50390625 6.46484375 -11.50390625 6.46484375 -8.5625 4.9375 C-5.59284789 3.38347433 -2.7916392 1.8610928 0 0 Z " fill="#54C0D9" transform="translate(306,347)"/>
<path d="M0 0 C0.66 0.33 1.32 0.66 2 1 C-1.64141869 5.96557094 -4.22917616 7.61207289 -10 10 C-11.21936288 11.00418119 -12.40668673 12.04828212 -13.5625 13.125 C-16.58139438 15.88435142 -18.82209785 16.7961999 -23 17 C-19.6092246 14.25188059 -16.16097513 11.62076281 -12.625 9.0625 C-11.67238281 8.37285156 -10.71976562 7.68320312 -9.73828125 6.97265625 C-6.49882593 4.63895449 -3.25372621 2.31376086 0 0 Z " fill="#CEF8FA" transform="translate(368,305)"/>
<path d="M0 0 C0.66 0.33 1.32 0.66 2 1 C1.34 1.66 0.68 2.32 0 3 C-0.99 3 -1.98 3 -3 3 C-3.33 3.99 -3.66 4.98 -4 6 C-4.66 6 -5.32 6 -6 6 C-6 6.66 -6 7.32 -6 8 C-7.7015625 8.1546875 -7.7015625 8.1546875 -9.4375 8.3125 C-13.52490252 8.79892268 -17.10041661 9.9782209 -20.921875 11.4765625 C-23.31757971 12.07999188 -24.68584349 11.78180963 -27 11 C-25.783125 10.608125 -24.56625 10.21625 -23.3125 9.8125 C-12.41242301 6.34343687 -12.41242301 6.34343687 -2.234375 1.28125 C-1.12835937 0.64703125 -1.12835937 0.64703125 0 0 Z " fill="#5AC3E1" transform="translate(835,853)"/>
<path d="M0 0 C3.49658096 4.41371695 6.3081691 9.27243252 9.24023438 14.06835938 C11.619459 17.92060925 14.07250262 21.52911563 17 25 C16.67 25.66 16.34 26.32 16 27 C14.62437146 25.71034824 13.29233607 24.37310707 12 23 C12 22.34 12 21.68 12 21 C11.01 20.67 10.02 20.34 9 20 C9 18.68 9 17.36 9 16 C8.01 16 7.02 16 6 16 C6 15.01 6 14.02 6 13 C5.34 12.67 4.68 12.34 4 12 C2.9296875 10.29296875 2.9296875 10.29296875 1.875 8.1875 C1.52179687 7.50042969 1.16859375 6.81335938 0.8046875 6.10546875 C0 4 0 4 0 0 Z " fill="#54C2DA" transform="translate(658,560)"/>
<path d="M0 0 C0.33 0.66 0.66 1.32 1 2 C-2.1472331 6.1363635 -3.99694625 8.33231542 -9 10 C-13.50127764 12.45524235 -17.76755444 15.10954937 -22 18 C-22.66 17.67 -23.32 17.34 -24 17 C-21.12633843 14.91481566 -18.25083111 12.8321909 -15.375 10.75 C-14.56675781 10.16347656 -13.75851562 9.57695312 -12.92578125 8.97265625 C-8.67035773 5.89352866 -4.3966518 2.87418661 0 0 Z " fill="#57C2DC" transform="translate(529,334)"/>
<path d="M0 0 C-2.87366157 2.08518434 -5.74916889 4.1678091 -8.625 6.25 C-9.43324219 6.83652344 -10.24148438 7.42304688 -11.07421875 8.02734375 C-23.47463132 17 -23.47463132 17 -26 17 C-26 16.34 -26 15.68 -26 15 C-24.68 14.67 -23.36 14.34 -22 14 C-22 13.34 -22 12.68 -22 12 C-21.38125 11.731875 -20.7625 11.46375 -20.125 11.1875 C-17.7004767 10.04443152 -17.7004767 10.04443152 -16 7 C-14.00844735 5.8714535 -11.96833515 4.98603022 -9.875 4.0625 C-7.67642241 3.00259733 -7.67642241 3.00259733 -6 0 C-3 -1 -3 -1 0 0 Z " fill="#59C2D7" transform="translate(410,277)"/>
<path d="M0 0 C1.09699219 0.55429687 2.19398438 1.10859375 3.32421875 1.6796875 C4.77859187 2.41156558 6.23302196 3.14333045 7.6875 3.875 C8.40873047 4.23980469 9.12996094 4.60460937 9.87304688 4.98046875 C13.53125364 6.8179242 17.1611695 8.56138502 21 10 C17.52176885 11.15941038 15.54104422 10.70820884 12 10 C12 9.34 12 8.68 12 8 C10.39796533 7.63631108 8.79325797 7.28438048 7.1875 6.9375 C5.84751953 6.64166016 5.84751953 6.64166016 4.48046875 6.33984375 C1.87369221 5.79650537 1.87369221 5.79650537 -1 7 C-0.67 4.69 -0.34 2.38 0 0 Z " fill="#D8FCFC" transform="translate(761,545)"/>
<path d="M0 0 C1.75 0.0625 1.75 0.0625 4 1 C5.01579377 2.67114459 6.0220247 4.35149813 6.91796875 6.08984375 C8.02379997 8.04201511 9.26153233 9.5770462 10.75 11.25 C13 14 13 14 13 17 C13.66 17 14.32 17 15 17 C14.67 17.99 14.34 18.98 14 20 C0 5.14893617 0 5.14893617 0 0 Z " fill="#D9FDFC" transform="translate(665,571)"/>
<path d="M0 0 C0.99 0.66 1.98 1.32 3 2 C0.25322042 3.9628813 -2.49796808 5.91949114 -5.25 7.875 C-6.02730469 8.43058594 -6.80460937 8.98617188 -7.60546875 9.55859375 C-8.35957031 10.09355469 -9.11367188 10.62851562 -9.890625 11.1796875 C-10.58188477 11.67194824 -11.27314453 12.16420898 -11.98535156 12.67138672 C-13.93302581 13.9558321 -15.89254184 15.00412271 -18 16 C-18.33 15.01 -18.66 14.02 -19 13 C-16.35261084 11.5393715 -15.10551666 11 -12 11 C-12 10.34 -12 9.68 -12 9 C-10.68 8.67 -9.36 8.34 -8 8 C-8 7.01 -8 6.02 -8 5 C-6.68 5 -5.36 5 -4 5 C-4 4.34 -4 3.68 -4 3 C-3.34 3 -2.68 3 -2 3 C-2 2.34 -2 1.68 -2 1 C-1.34 0.67 -0.68 0.34 0 0 Z " fill="#D9FCFC" transform="translate(516,340)"/>
<path d="M0 0 C1.80734314 2.71101472 2.40757821 4.14632847 3.1875 7.1875 C4.8170298 12.9163157 7.19962668 18.23338251 9.6628418 23.64135742 C12 28.80839912 12 28.80839912 12 31 C11.34 31 10.68 31 10 31 C9.73445312 30.28972656 9.46890625 29.57945312 9.1953125 28.84765625 C8.84210937 27.92855469 8.48890625 27.00945313 8.125 26.0625 C7.77695312 25.14597656 7.42890625 24.22945312 7.0703125 23.28515625 C6.2180914 20.85058944 6.2180914 20.85058944 4 20 C3.19243704 17.39163059 2.50140947 14.83930011 1.875 12.1875 C1.60236328 11.09985352 1.60236328 11.09985352 1.32421875 9.99023438 C0.48366274 6.53637079 0 3.57424146 0 0 Z " fill="#5EC2DF" transform="translate(646,529)"/>
<path d="M0 0 C2.54115245 2.54115245 2.43562323 4.55221279 2.75390625 8.02734375 C2.96047055 10.2086702 2.96047055 10.2086702 4 13 C4.144375 13.969375 4.28875 14.93875 4.4375 15.9375 C4.81489644 18.88591218 4.81489644 18.88591218 5.99609375 20.83203125 C7.2386472 23.51536653 7.41486954 25.80817354 7.625 28.75 C7.69976563 29.73484375 7.77453125 30.7196875 7.8515625 31.734375 C7.90054688 32.48203125 7.94953125 33.2296875 8 34 C5.73926485 31.73926485 5.48134433 30.64843879 4.74609375 27.59765625 C4.53170654 26.71166748 4.31731934 25.82567871 4.09643555 24.9128418 C3.87898682 23.972229 3.66153809 23.03161621 3.4375 22.0625 C3.21425049 21.1135083 2.99100098 20.1645166 2.76098633 19.18676758 C1.30510039 12.81719843 0.168745 6.55037422 0 0 Z " fill="#D2FAFD" transform="translate(642,505)"/>
<path d="M0 0 C0.66 0.33 1.32 0.66 2 1 C0.83730554 4.2555445 -0.1469468 5.09698489 -3.125 7.0625 C-4.07375 7.701875 -5.0225 8.34125 -6 9 C-6 9.99 -6 10.98 -6 12 C-8.475 11.01 -8.475 11.01 -11 10 C-11 10.66 -11 11.32 -11 12 C-12.32 11.67 -13.64 11.34 -15 11 C-10.05 7.37 -5.1 3.74 0 0 Z " fill="#E0FBFB" transform="translate(272,372)"/>
<path d="M0 0 C1.39412109 0.24363281 1.39412109 0.24363281 2.81640625 0.4921875 C7.84746182 1.20819893 12.86511112 1.14554985 17.9375 1.125 C19.36352539 1.13080078 19.36352539 1.13080078 20.81835938 1.13671875 C26.30572608 1.12915518 31.57176253 0.8075064 37 0 C36.67 0.99 36.34 1.98 36 3 C31.51595436 3.024759 27.03194519 3.04288799 22.54785156 3.05493164 C21.02310493 3.05995365 19.49836309 3.0667725 17.97363281 3.07543945 C15.77928481 3.08759849 13.5850006 3.09324968 11.390625 3.09765625 C9.4111084 3.10551147 9.4111084 3.10551147 7.39160156 3.11352539 C4.69051582 3.02311329 2.5499384 2.81881355 0 2 C0 1.34 0 0.68 0 0 Z " fill="#C8F8FC" transform="translate(785,556)"/>
<path d="M0 0 C0.33 0.66 0.66 1.32 1 2 C-1 5 -1 5 -4.5625 6 C-6.2640625 6.495 -6.2640625 6.495 -8 7 C-8.33 7.99 -8.66 8.98 -9 10 C-9.99 10 -10.98 10 -12 10 C-12 10.66 -12 11.32 -12 12 C-13.65 12 -15.3 12 -17 12 C-17 12.66 -17 13.32 -17 14 C-18.32 13.67 -19.64 13.34 -21 13 C-20.5059668 12.71278076 -20.01193359 12.42556152 -19.50292969 12.12963867 C-17.25044832 10.81815756 -15.00021326 9.50286856 -12.75 8.1875 C-11.97269531 7.73568359 -11.19539062 7.28386719 -10.39453125 6.81835938 C-9.64042969 6.37685547 -8.88632812 5.93535156 -8.109375 5.48046875 C-7.41811523 5.07723389 -6.72685547 4.67399902 -6.01464844 4.25854492 C-3.91474773 2.94674316 -1.95950711 1.51189421 0 0 Z " fill="#55BED8" transform="translate(896,618)"/>
<path d="M0 0 C3.77693016 2.18882424 7.29573979 4.6028931 10.8125 7.1875 C11.78832031 7.90292969 12.76414062 8.61835937 13.76953125 9.35546875 C14.50558594 9.89816406 15.24164062 10.44085937 16 11 C14.68 11.33 13.36 11.66 12 12 C12 11.34 12 10.68 12 10 C9.36 9.34 6.72 8.68 4 8 C4 7.01 4 6.02 4 5 C3.01 5 2.02 5 1 5 C0.67 3.35 0.34 1.7 0 0 Z " fill="#53C0DE" transform="translate(700,612)"/>
<path d="M0 0 C0.59425781 0.20109375 1.18851562 0.4021875 1.80078125 0.609375 C-0.81900106 2.45025499 -3.44586456 4.28075935 -6.07421875 6.109375 C-6.82058594 6.63402344 -7.56695312 7.15867187 -8.3359375 7.69921875 C-9.05136719 8.19550781 -9.76679688 8.69179688 -10.50390625 9.203125 C-11.49366455 9.89438477 -11.49366455 9.89438477 -12.50341797 10.59960938 C-14.19921875 11.609375 -14.19921875 11.609375 -16.19921875 11.609375 C-16.19921875 10.289375 -16.19921875 8.969375 -16.19921875 7.609375 C-15.20921875 7.609375 -14.21921875 7.609375 -13.19921875 7.609375 C-13.19921875 6.949375 -13.19921875 6.289375 -13.19921875 5.609375 C-11.87921875 5.939375 -10.55921875 6.269375 -9.19921875 6.609375 C-8.86921875 5.619375 -8.53921875 4.629375 -8.19921875 3.609375 C-3.0175327 -0.53597384 -3.0175327 -0.53597384 0 0 Z " fill="#48C2DF" transform="translate(328.19921875,332.390625)"/>
<path d="M0 0 C4.25 6.375 4.25 6.375 4 11 C2.02 11.99 2.02 11.99 0 13 C-0.33 12.34 -0.66 11.68 -1 11 C-1.66 11 -2.32 11 -3 11 C-2.01 7.37 -1.02 3.74 0 0 Z " fill="#3EC1E5" transform="translate(12,123)"/>
<path d="M0 0 C3.98393972 2.17760146 6.946367 4.70540375 10.125 7.9375 C10.97320313 8.79214844 11.82140625 9.64679688 12.6953125 10.52734375 C14.63429796 12.6076451 16.35617236 14.68467415 18 17 C17.67 17.66 17.34 18.32 17 19 C16.45730469 18.38511719 15.91460938 17.77023437 15.35546875 17.13671875 C14.64003906 16.32847656 13.92460938 15.52023437 13.1875 14.6875 C12.47980469 13.88699219 11.77210938 13.08648437 11.04296875 12.26171875 C7.27052008 7.87725184 7.27052008 7.87725184 2 6 C2 5.34 2 4.68 2 4 C1.34 3.67 0.68 3.34 0 3 C0 2.01 0 1.02 0 0 Z " fill="#52BBD9" transform="translate(845,428)"/>
<path d="M0 0 C0.66 0.33 1.32 0.66 2 1 C1.51789063 1.38671875 1.03578125 1.7734375 0.5390625 2.171875 C-0.09257812 2.69265625 -0.72421875 3.2134375 -1.375 3.75 C-2.00148438 4.26046875 -2.62796875 4.7709375 -3.2734375 5.296875 C-5.10616904 6.91200736 -5.10616904 6.91200736 -6.01953125 9.1328125 C-7 11 -7 11 -10.3125 12.125 C-11.529375 12.41375 -12.74625 12.7025 -14 13 C-15.67632417 13.64199649 -17.34750513 14.29894157 -19 15 C-15.38085297 11.16315992 -11.62943611 8.17290455 -7.25 5.25 C-3.44604892 2.84336152 -3.44604892 2.84336152 0 0 Z " fill="#58C4D9" transform="translate(428,404)"/>
<path d="M0 0 C-5.61 3.96 -11.22 7.92 -17 12 C-17.33 11.34 -17.66 10.68 -18 10 C-15.63707344 7.47411298 -14.33537489 6.11179163 -11 5 C-10.34 4.01 -9.68 3.02 -9 2 C-5.27815774 -0.74241009 -4.68527737 -1.17131934 0 0 Z " fill="#4EBDD2" transform="translate(490,221)"/>
<path d="M0 0 C0 0.66 0 1.32 0 2 C-1.65 2.66 -3.3 3.32 -5 4 C-5 4.66 -5 5.32 -5 6 C-5.66 6 -6.32 6 -7 6 C-7.2784375 6.8971875 -7.2784375 6.8971875 -7.5625 7.8125 C-9.70764448 11.07685029 -12.38475374 11.77339859 -16 13 C-16.66 12.67 -17.32 12.34 -18 12 C-15.38084613 9.99224902 -12.75375554 7.99515805 -10.125 6 C-9.00544922 5.14148438 -9.00544922 5.14148438 -7.86328125 4.265625 C-7.14785156 3.72421875 -6.43242187 3.1828125 -5.6953125 2.625 C-5.03547363 2.12226563 -4.37563477 1.61953125 -3.69580078 1.1015625 C-2 0 -2 0 0 0 Z " fill="#5AC3DC" transform="translate(397,427)"/>
<path d="M0 0 C0.66 0.33 1.32 0.66 2 1 C1.34 2.32 0.68 3.64 0 5 C-1.32 5 -2.64 5 -4 5 C-4.33 5.99 -4.66 6.98 -5 8 C-5.99 8 -6.98 8 -8 8 C-8.20625 8.61875 -8.4125 9.2375 -8.625 9.875 C-10.54775888 12.84653645 -12.66594527 13.13024659 -16 14 C-13.06006416 9.9825634 -9.76235288 7.07197856 -5.75 4.1875 C-4.91855469 3.57745117 -4.91855469 3.57745117 -4.0703125 2.95507812 C-2.71789547 1.96408289 -1.35955093 0.98118534 0 0 Z " fill="#D1FAFD" transform="translate(249,388)"/>
<path d="M0 0 C0.66 0.33 1.32 0.66 2 1 C0.625 2.5 0.625 2.5 -1 4 C-1.66 4 -2.32 4 -3 4 C-3 4.66 -3 5.32 -3 6 C-3.61488281 6.32613281 -4.22976563 6.65226562 -4.86328125 6.98828125 C-5.67152344 7.42527344 -6.47976563 7.86226563 -7.3125 8.3125 C-8.11300781 8.74175781 -8.91351563 9.17101562 -9.73828125 9.61328125 C-12.00759029 10.88369459 -12.00759029 10.88369459 -13.59375 12.59375 C-15.7047334 14.7047334 -18.18192555 15.1858896 -21 16 C-17.57508257 12.37955321 -14.12244009 9.57325467 -9.9375 6.875 C-6.54168988 4.67393266 -3.20381377 2.47392814 0 0 Z " fill="#5EC0D7" transform="translate(503,352)"/>
<path d="M0 0 C4.64921837 1.16230459 8.2175551 4.18170772 12 7 C10.140625 7.58203125 10.140625 7.58203125 8 8 C5.75 6.6875 5.75 6.6875 4 5 C4 4.34 4 3.68 4 3 C2.35 3 0.7 3 -1 3 C-1 3.66 -1 4.32 -1 5 C-3.31 5.66 -5.62 6.32 -8 7 C-5.42215154 4.35247996 -3.08351902 2.05567935 0 0 Z " fill="#5DC4D7" transform="translate(539,327)"/>
<path d="M0 0 C4.89126874 1.19299237 7.69851534 3.23506068 11.3203125 6.54296875 C13.11210602 8.18374829 13.11210602 8.18374829 15.9375 9.75 C16.618125 10.1625 17.29875 10.575 18 11 C18 11.66 18 12.32 18 13 C13.60918236 11.4785114 9.97124031 9.14060361 6.1875 6.5 C5.59001953 6.09652344 4.99253906 5.69304687 4.37695312 5.27734375 C2.87856389 4.23960218 1.43384386 3.12524203 0 2 C0 1.34 0 0.68 0 0 Z " fill="#5AC0DA" transform="translate(618,239)"/>
<path d="M0 0 C0 0.99 0 1.98 0 3 C2.31 3 4.62 3 7 3 C7 3.33 7 3.66 7 4 C5.43883181 4.33951619 3.87598662 4.67132544 2.3125 5 C1.00732422 5.2784375 1.00732422 5.2784375 -0.32421875 5.5625 C-2.93712964 5.98972047 -5.35813038 6.07616201 -8 6 C-6.98565881 3.46414701 -6.34981128 2.21863205 -4 0.75 C-2 0 -2 0 0 0 Z " fill="#43C0E8" transform="translate(924,1072)"/>
<path d="M0 0 C0.66 0 1.32 0 2 0 C2.34933594 0.63808594 2.69867187 1.27617187 3.05859375 1.93359375 C3.51363281 2.75988281 3.96867188 3.58617187 4.4375 4.4375 C4.88996094 5.26121094 5.34242188 6.08492188 5.80859375 6.93359375 C6.83662397 8.92308798 6.83662397 8.92308798 8 10 C8.04080783 11.99958364 8.04254356 14.00045254 8 16 C8.66 16 9.32 16 10 16 C10 17.65 10 19.3 10 21 C7.18540234 17.6492885 5.60055546 14.02403801 4 10 C3.64421875 9.11699219 3.2884375 8.23398437 2.921875 7.32421875 C1.9420814 4.88508468 0.9685901 2.44360042 0 0 Z " fill="#5BC6E0" transform="translate(945,407)"/>
<path d="M0 0 C0.33 0 0.66 0 1 0 C1.22786458 2.05078125 1.45572917 4.1015625 1.68359375 6.15234375 C1.81886614 8.01140229 1.81886614 8.01140229 3 9 C3.04092937 11.33297433 3.04241723 13.66705225 3 16 C3.66 16 4.32 16 5 16 C5.625 18.875 5.625 18.875 6 22 C5.34 22.66 4.68 23.32 4 24 C1.38822878 15.9081731 -0.71240023 8.58838053 0 0 Z " fill="#D7F9FC" transform="translate(216,800)"/>
<path d="M0 0 C0 0.66 0 1.32 0 2 C-0.99 2.495 -0.99 2.495 -2 3 C-2.226875 3.639375 -2.45375 4.27875 -2.6875 4.9375 C-4.72568155 8.14035672 -7.41534684 8.19654326 -11 9 C-11.804375 9.20625 -12.60875 9.4125 -13.4375 9.625 C-13.953125 9.74875 -14.46875 9.8725 -15 10 C-11.63672231 6.19803392 -5.34781299 0 0 0 Z " fill="#57C7DD" transform="translate(359,454)"/>
<path d="M0 0 C0.99 0.66 1.98 1.32 3 2 C2.21625 2.763125 1.4325 3.52625 0.625 4.3125 C-2.07257717 6.90891805 -2.07257717 6.90891805 -4 10 C-4.66 10 -5.32 10 -6 10 C-6.66 11.65 -7.32 13.3 -8 15 C-8.99 15 -9.98 15 -11 15 C-10.34 13.68 -9.68 12.36 -9 11 C-8.34 11 -7.68 11 -7 11 C-7 10.34 -7 9.68 -7 9 C-6.34 9 -5.68 9 -5 9 C-4.5978125 7.6078125 -4.5978125 7.6078125 -4.1875 6.1875 C-3.08851629 3.23759634 -2.37581439 1.94384814 0 0 Z " fill="#D9FBFD" transform="translate(752,430)"/>
<path d="M0 0 C1.32 0.33 2.64 0.66 4 1 C1.90421865 2.5337173 -0.20022537 4.05180837 -2.3125 5.5625 C-2.90740234 6.00013672 -3.50230469 6.43777344 -4.11523438 6.88867188 C-5.68970073 8.00575136 -7.34206919 9.01102259 -9 10 C-9.99 9.67 -10.98 9.34 -12 9 C-11.38125 8.938125 -10.7625 8.87625 -10.125 8.8125 C-9.073125 8.4103125 -9.073125 8.4103125 -8 8 C-7.690625 7.175 -7.38125 6.35 -7.0625 5.5 C-6.711875 4.675 -6.36125 3.85 -6 3 C-3.4375 2.3125 -3.4375 2.3125 -1 2 C-0.67 1.34 -0.34 0.68 0 0 Z " fill="#51C0DB" transform="translate(433,257)"/>
<path d="M0 0 C0.66 0.33 1.32 0.66 2 1 C0 4 0 4 -3 5 C-3.99 6.485 -3.99 6.485 -5 8 C-8.27740694 10.30304271 -11.03925073 11.43417868 -15 12 C-10.58990583 7.14889642 -5.41995647 3.651893 0 0 Z " fill="#CCFAFB" transform="translate(444,252)"/>
<path d="M0 0 C3.48133831 1.39253532 4.47886033 2.63176216 6 6 C6.66 6.33 7.32 6.66 8 7 C8 7.66 8 8.32 8 9 C8.66 9 9.32 9 10 9 C10.99 10.485 10.99 10.485 12 12 C12.66 12.33 13.32 12.66 14 13 C13.01 14.485 13.01 14.485 12 16 C10.55410731 14.46620188 9.11865196 12.92256145 7.6875 11.375 C6.48673828 10.08722656 6.48673828 10.08722656 5.26171875 8.7734375 C2.98205128 5.97799034 1.48419262 3.27579084 0 0 Z " fill="#D7F9FE" transform="translate(225,832)"/>
<path d="M0 0 C0 2.31 0 4.62 0 7 C1.32 7.66 2.64 8.32 4 9 C4 9.99 4 10.98 4 12 C0.37 8.7 -3.26 5.4 -7 2 C-5.68 1.67 -4.36 1.34 -3 1 C-1 0 -1 0 0 0 Z " fill="#DEFCFD" transform="translate(696,600)"/>
<path d="M0 0 C2.33944736 0.28730055 4.6739143 0.61936779 7 1 C-1.44827586 8 -1.44827586 8 -5 8 C-5 7.34 -5 6.68 -5 6 C-4.34 6 -3.68 6 -3 6 C-2.690625 5.195625 -2.38125 4.39125 -2.0625 3.5625 C-1 1 -1 1 0 0 Z " fill="#DAFCFB" transform="translate(765,419)"/>
<path d="M0 0 C1.9587043 0.14076315 3.91696093 0.2877676 5.875 0.4375 C7.51082031 0.55931641 7.51082031 0.55931641 9.1796875 0.68359375 C12 1 12 1 14 2 C14 2.99 14 3.98 14 5 C15.32 5.33 16.64 5.66 18 6 C17.67 6.66 17.34 7.32 17 8 C16.35933594 7.66226562 15.71867188 7.32453125 15.05859375 6.9765625 C10.08816104 4.41356739 5.44208502 2.30136816 0 1 C0 0.67 0 0.34 0 0 Z " fill="#CDF9FB" transform="translate(822,416)"/>
<path d="M0 0 C0.99 0.33 1.98 0.66 3 1 C0.91689914 2.60446931 -1.16647227 4.20858518 -3.25 5.8125 C-4.12978516 6.49022461 -4.12978516 6.49022461 -5.02734375 7.18164062 C-8.00457848 9.4731078 -10.98719555 11.75531153 -14 14 C-14 13.01 -14 12.02 -14 11 C-12.53484755 9.69764227 -11.06105214 8.4013234 -9.515625 7.1953125 C-7.92796463 5.99923235 -7.92796463 5.99923235 -6.4375 4.375 C-4.46068911 2.48413741 -2.44308339 1.2215417 0 0 Z " fill="#53C3D7" transform="translate(245,389)"/>
<path d="M0 0 C2.4375 0.375 2.4375 0.375 5 1 C5.33 1.66 5.66 2.32 6 3 C7.65051288 4.11634152 7.65051288 4.11634152 9.5625 5.125 C11.2640625 6.053125 11.2640625 6.053125 13 7 C13 7.66 13 8.32 13 9 C14.32 9.66 15.64 10.32 17 11 C12.67787021 11 10.16497311 8.52725706 6.8125 6.0625 C6.15830078 5.59392578 5.50410156 5.12535156 4.83007812 4.64257812 C3.19724095 3.4592394 1.59561429 2.23307049 0 1 C0 0.67 0 0.34 0 0 Z " fill="#55C1DA" transform="translate(596,224)"/>
<path d="M0 0 C2.20914 3.31371 2.22481553 4.3446021 2.125 8.1875 C2.10695313 9.08855469 2.08890625 9.98960937 2.0703125 10.91796875 C2.03550781 11.94857422 2.03550781 11.94857422 2 13 C0.02 13.99 0.02 13.99 -2 15 C-1.03644647 4.44191344 -1.03644647 4.44191344 0 0 Z " fill="#42C1E3" transform="translate(4,149)"/>
<path d="M0 0 C0.66 0.33 1.32 0.66 2 1 C1.67 1.66 1.34 2.32 1 3 C0.34 3 -0.32 3 -1 3 C-1 3.66 -1 4.32 -1 5 C-2.32 5 -3.64 5 -5 5 C-5.33 5.99 -5.66 6.98 -6 8 C-6.66 8 -7.32 8 -8 8 C-8 12.29 -8 16.58 -8 21 C-8.33 21 -8.66 21 -9 21 C-9.13526139 18.75165504 -9.23210804 16.50097486 -9.3125 14.25 C-9.39951172 12.37054688 -9.39951172 12.37054688 -9.48828125 10.453125 C-9 7 -9 7 -6.625 4.65625 C-5.75875 4.1096875 -4.8925 3.563125 -4 3 C-3.236875 2.4225 -2.47375 1.845 -1.6875 1.25 C-1.130625 0.8375 -0.57375 0.425 0 0 Z " fill="#56C2DD" transform="translate(341,465)"/>
<path d="M0 0 C0.66 0.33 1.32 0.66 2 1 C-3.61 4.96 -9.22 8.92 -15 13 C-15.33 12.01 -15.66 11.02 -16 10 C-15.278125 9.5875 -14.55625 9.175 -13.8125 8.75 C-10.98062174 7.07257303 -10.98062174 7.07257303 -8.5625 5 C-5.82384291 2.86251154 -3.19860025 1.3505201 0 0 Z " fill="#5EBEDB" transform="translate(269,373)"/>
<path d="M0 0 C4.18423892 3.50897269 8.19588166 7.08060535 12 11 C10.68 11 9.36 11 8 11 C7.67 10.34 7.34 9.68 7 9 C6.195625 8.773125 5.39125 8.54625 4.5625 8.3125 C2 7 2 7 0.6875 3.375 C0.460625 2.26125 0.23375 1.1475 0 0 Z " fill="#53BFD9" transform="translate(688,601)"/>
<path d="M0 0 C1.03115279 3.26913624 0.9638984 5.86041348 0.5625 9.25 C0.46066406 10.14203125 0.35882813 11.0340625 0.25390625 11.953125 C0.12822266 12.96632813 0.12822266 12.96632813 0 14 C-0.66 14 -1.32 14 -2 14 C-2 17.3 -2 20.6 -2 24 C-2.33 24 -2.66 24 -3 24 C-3.40735653 15.49077472 -2.43092956 8.1609778 0 0 Z " fill="#CBF9FC" transform="translate(219,424)"/>
<path d="M0 0 C0.33 0.99 0.66 1.98 1 3 C1.66 3.33 2.32 3.66 3 4 C3 4.66 3 5.32 3 6 C-0.67410785 7.17571451 -4.16929183 7.07366746 -8 7 C-5.42215154 4.35247996 -3.08351902 2.05567935 0 0 Z " fill="#3DC4E1" transform="translate(85,32)"/>
<path d="M0 0 C-0.33 0.99 -0.66 1.98 -1 3 C-1.66 3 -2.32 3 -3 3 C-3.2475 3.61875 -3.495 4.2375 -3.75 4.875 C-5.23101402 7.39272383 -6.25177691 8.08392564 -9 9 C-9.99 8.67 -10.98 8.34 -12 8 C-11.34 8 -10.68 8 -10 8 C-9.67 7.01 -9.34 6.02 -9 5 C-3.65116279 0 -3.65116279 0 0 0 Z " fill="#4BC9E0" transform="translate(922,599)"/>
<path d="M0 0 C3.20442519 1.6022126 3.68843661 3.69257927 5 7 C5.53272554 10.65871877 5.80953072 14.3088368 6 18 C3.40052213 15.40052213 2.9315565 13.07261547 1.875 9.5625 C1.52179687 8.40878906 1.16859375 7.25507813 0.8046875 6.06640625 C0 3 0 3 0 0 Z " fill="#4EC1DF" transform="translate(955,428)"/>
<path d="M0 0 C6.49850211 0.51553879 12.66226532 1.46667709 19 3 C19 3.33 19 3.66 19 4 C16.2079699 3.8595017 13.41650204 3.71284617 10.625 3.5625 C9.8309375 3.52318359 9.036875 3.48386719 8.21875 3.44335938 C2.2265625 3.11328125 2.2265625 3.11328125 0 2 C0 1.34 0 0.68 0 0 Z " fill="#D0FBFD" transform="translate(827,326)"/>
<path d="M0 0 C0.33 0.66 0.66 1.32 1 2 C-1.08745247 7.56653992 -1.08745247 7.56653992 -4.5 9.1875 C-5.325 9.455625 -6.15 9.72375 -7 10 C-8.77277259 11.52007842 -8.77277259 11.52007842 -10 13 C-10.66 12.67 -11.32 12.34 -12 12 C-11.0479279 10.99403703 -10.08812654 9.99538437 -9.125 9 C-8.32449219 8.1646875 -8.32449219 8.1646875 -7.5078125 7.3125 C-6 6 -6 6 -4 6 C-3.566875 5.071875 -3.566875 5.071875 -3.125 4.125 C-2 2 -2 2 0 0 Z " fill="#CDFAFC" transform="translate(859,531)"/>
<path d="M0 0 C-0.8125 1.9375 -0.8125 1.9375 -2 4 C-2.99 4.33 -3.98 4.66 -5 5 C-5 5.99 -5 6.98 -5 8 C-7.97 7.505 -7.97 7.505 -11 7 C-10.4375 5.1875 -10.4375 5.1875 -9 3 C-3 0 -3 0 0 0 Z " fill="#43C2EE" transform="translate(439,400)"/>
<path d="M0 0 C4.15151338 1.44202476 7.29978445 3.5010438 10.8125 6.125 C11.78832031 6.84945313 12.76414062 7.57390625 13.76953125 8.3203125 C14.87361328 9.15175781 14.87361328 9.15175781 16 10 C15.01 10.495 15.01 10.495 14 11 C13.01 10.236875 12.02 9.47375 11 8.6875 C7.19028265 5.94512678 3.44025735 4.48008578 -1 3 C-0.67 2.01 -0.34 1.02 0 0 Z " fill="#54C2D8" transform="translate(592,364)"/>
<path d="M0 0 C2.00401011 0.30830925 4.00291344 0.64963394 6 1 C6.75796875 1.11085938 7.5159375 1.22171875 8.296875 1.3359375 C14.54247163 2.41769116 14.54247163 2.41769116 17.0625 5.625 C17.5265625 6.800625 17.5265625 6.800625 18 8 C13.78224268 6.64474464 9.70578678 5.09799886 5.625 3.375 C4.56539062 2.92898438 3.50578125 2.48296875 2.4140625 2.0234375 C1.61742187 1.68570312 0.82078125 1.34796875 0 1 C0 0.67 0 0.34 0 0 Z " fill="#5CBFDC" transform="translate(856,332)"/>
<path d="M0 0 C3 1 3 1 4.0625 2.7421875 C4.371875 3.44601562 4.68125 4.14984375 5 4.875 C6.30981871 7.83300726 7.5905848 9.8233124 10 12 C9.67 12.99 9.34 13.98 9 15 C7.67981412 13.25579087 6.36911398 11.50439909 5.0625 9.75 C4.33160156 8.77546875 3.60070312 7.8009375 2.84765625 6.796875 C1.24654921 4.3732119 0.42363762 2.8242508 0 0 Z " fill="#54BFDE" transform="translate(740,520)"/>
<path d="M0 0 C0.33 1.32 0.66 2.64 1 4 C2.32 4.33 3.64 4.66 5 5 C5 5.66 5 6.32 5 7 C6.32 7 7.64 7 9 7 C9 7.99 9 8.98 9 10 C9.66 10 10.32 10 11 10 C10.67 10.66 10.34 11.32 10 12 C5.71 9.03 1.42 6.06 -3 3 C-2.01 2.01 -1.02 1.02 0 0 Z " fill="#D5FAFC" transform="translate(571,344)"/>
<path d="M0 0 C0.66 0.33 1.32 0.66 2 1 C1.0625 3.375 1.0625 3.375 -1 6 C-3.9481839 7.04022801 -6.90930595 7.56587736 -10 8 C-7.92141021 5.81907964 -5.78143382 4.03609531 -3.3125 2.3125 C-2.68988281 1.87550781 -2.06726563 1.43851562 -1.42578125 0.98828125 C-0.95527344 0.66214844 -0.48476563 0.33601563 0 0 Z " fill="#D1FAFA" transform="translate(334,329)"/>
<path d="M0 0 C5.48244575 1.32334897 7.97717514 2.97717514 12 7 C14.16620544 8.29519995 14.16620544 8.29519995 16 9 C16 9.66 16 10.32 16 11 C11.87321179 9.55901911 8.69813572 7.52700506 5.1875 4.9375 C4.21167969 4.22464844 3.23585938 3.51179687 2.23046875 2.77734375 C1.49441406 2.19082031 0.75835938 1.60429687 0 1 C0 0.67 0 0.34 0 0 Z " fill="#53BEDD" transform="translate(580,213)"/>
<path d="M0 0 C4.95 1.65 9.9 3.3 15 5 C13 7 13 7 10.5 7.3125 C9.675 7.209375 8.85 7.10625 8 7 C7.34 6.01 6.68 5.02 6 4 C2.94570927 2.78715124 2.94570927 2.78715124 0 2 C0 1.34 0 0.68 0 0 Z " fill="#41C4E1" transform="translate(947,9)"/>
<path d="M0 0 C-3.14671658 1.83558467 -6.36571625 2.65798358 -9.89453125 3.4921875 C-12.95927629 4.23136534 -15.97378426 5.11735374 -19 6 C-16.45757288 2.93853067 -13.79531359 1.98658102 -10.0625 0.75 C-9.02222656 0.39421875 -7.98195313 0.0384375 -6.91015625 -0.328125 C-4.05806177 -0.98659513 -2.69443735 -1.01284874 0 0 Z " fill="#5BC0DB" transform="translate(788,417)"/>
<path d="M0 0 C0 0.99 0 1.98 0 3 C0.66 3 1.32 3 2 3 C2 3.66 2 4.32 2 5 C3.32 5.66 4.64 6.32 6 7 C3 7 3 7 0.125 4.9375 C-2.79827039 2.69346732 -2.79827039 2.69346732 -5.875 3.25 C-6.57625 3.4975 -7.2775 3.745 -8 4 C-8 3.01 -8 2.02 -8 1 C-2.25 0 -2.25 0 0 0 Z " fill="#D9FAFA" transform="translate(544,325)"/>
<path d="M0 0 C0.66 0.33 1.32 0.66 2 1 C1.01 2.485 1.01 2.485 0 4 C-2.625 4.1875 -2.625 4.1875 -5 4 C-5 4.66 -5 5.32 -5 6 C-8.3 6.33 -11.6 6.66 -15 7 C-11.80502109 5.40251054 -8.60706086 3.83270113 -5.375 2.3125 C-4.41335938 1.85488281 -3.45171875 1.39726563 -2.4609375 0.92578125 C-1.64882813 0.62027344 -0.83671875 0.31476562 0 0 Z " fill="#CEF7FC" transform="translate(837,549)"/>
<path d="M0 0 C2.0625 0.4375 2.0625 0.4375 4 1 C2.4722133 4.43752007 0.49818944 7.18953688 -2 10 C-2.66 10 -3.32 10 -4 10 C-3.67 9.01 -3.34 8.02 -3 7 C-2.34 7 -1.68 7 -1 7 C-1.020625 6.030625 -1.04125 5.06125 -1.0625 4.0625 C-1 1 -1 1 0 0 Z " fill="#48C3E5" transform="translate(859,524)"/>
<path d="M0 0 C0.33 0 0.66 0 1 0 C1 2.97 1 5.94 1 9 C0.34 9 -0.32 9 -1 9 C-1.66 11.31 -2.32 13.62 -3 16 C-3.66 16 -4.32 16 -5 16 C-4.80664062 15.43152344 -4.61328125 14.86304688 -4.4140625 14.27734375 C-2.81863577 9.54635062 -1.33099414 4.81205575 0 0 Z " fill="#D1F8FA" transform="translate(872,504)"/>
<path d="M0 0 C1.14271055 3.42813165 0.82699932 4.30911099 -0.3125 7.625 C-0.70888672 8.81996094 -0.70888672 8.81996094 -1.11328125 10.0390625 C-2 12 -2 12 -4 13 C-5.13350534 15.01669827 -5.13350534 15.01669827 -6 17 C-6.33 16.34 -6.66 15.68 -7 15 C-5.92591043 12.39525962 -4.79954367 9.90033962 -3.5625 7.375 C-3.22412109 6.66859375 -2.88574219 5.9621875 -2.53710938 5.234375 C-1.69845121 3.48618616 -0.85012153 1.74264314 0 0 Z " fill="#D0F8FD" transform="translate(658,412)"/>
<path d="M0 0 C-1.6209213 1.17232685 -3.24686833 2.3377077 -4.875 3.5 C-5.77992188 4.1496875 -6.68484375 4.799375 -7.6171875 5.46875 C-10 7 -10 7 -12 7 C-11.9375 5.25 -11.9375 5.25 -11 3 C-7.33168172 0.05569191 -4.62318652 -1.58188501 0 0 Z " fill="#D9FAFC" transform="translate(416,414)"/>
<path d="M0 0 C0.99 0.33 1.98 0.66 3 1 C3 1.99 3 2.98 3 4 C3.66 4 4.32 4 5 4 C5.66 5.98 6.32 7.96 7 10 C7.66 10 8.32 10 9 10 C9 11.65 9 13.3 9 15 C0 4.33333333 0 4.33333333 0 0 Z " fill="#54BEDD" transform="translate(936,392)"/>
<path d="M0 0 C5.94019945 2.92480409 10.10689944 5.59989278 14 11 C13.01 11.33 12.02 11.66 11 12 C10.62875 11.21625 10.2575 10.4325 9.875 9.625 C8.19899942 6.72996124 8.19899942 6.72996124 4.9375 6 C2 5 2 5 0.625 2.375 C0.41875 1.59125 0.2125 0.8075 0 0 Z " fill="#4EBEDC" transform="translate(551,335)"/>
<path d="M0 0 C0.66 0.66 1.32 1.32 2 2 C0.75 3.5 0.75 3.5 -1 5 C-2.32 5 -3.64 5 -5 5 C-5 5.66 -5 6.32 -5 7 C-5.99 7 -6.98 7 -8 7 C-8.33 7.99 -8.66 8.98 -9 10 C-9.99 9.34 -10.98 8.68 -12 8 C-8.04 5.36 -4.08 2.72 0 0 Z " fill="#DEF9FC" transform="translate(393,288)"/>
<path d="M0 0 C2.64 0 5.28 0 8 0 C8.66 1.32 9.32 2.64 10 4 C9.34 4 8.68 4 8 4 C7.67 4.66 7.34 5.32 7 6 C5.83054208 5.19152271 4.66449539 4.37810888 3.5 3.5625 C2.8503125 3.11003906 2.200625 2.65757812 1.53125 2.19140625 C1.0259375 1.79824219 0.520625 1.40507813 0 1 C0 0.67 0 0.34 0 0 Z " fill="#E6F8F7" transform="translate(238,848)"/>
<path d="M0 0 C1.78821774 2.68232661 3.20142604 5.30288961 4.625 8.1875 C5.07101562 9.08855469 5.51703125 9.98960937 5.9765625 10.91796875 C6.31429687 11.60503906 6.65203125 12.29210937 7 13 C6.01 13.495 6.01 13.495 5 14 C4.67 13.34 4.34 12.68 4 12 C3.01 12 2.02 12 1 12 C0.67 8.04 0.34 4.08 0 0 Z " fill="#D1F9FD" transform="translate(735,512)"/>
<path d="M0 0 C0.33 0.99 0.66 1.98 1 3 C1.66 3.33 2.32 3.66 3 4 C1.35 8.29 -0.3 12.58 -2 17 C-3.10318677 12.58725292 -2.64855836 10.59423342 -1.5625 6.25 C-1.27503906 5.07953125 -0.98757812 3.9090625 -0.69140625 2.703125 C-0.46324219 1.81109375 -0.23507813 0.9190625 0 0 Z " fill="#50C2DA" transform="translate(220,413)"/>
<path d="M0 0 C6.06732052 1.03767051 11.4373852 2.33961901 17 5 C16.34 5.66 15.68 6.32 15 7 C9.93107817 5.13250249 4.94889531 3.1651417 0 1 C0 0.67 0 0.34 0 0 Z " fill="#CFF9FD" transform="translate(846,330)"/>
<path d="M0 0 C4.47014404 2.50328066 8.76946537 5.1108544 13 8 C11.1875 8.625 11.1875 8.625 9 9 C8.01 8.34 7.02 7.68 6 7 C6 6.34 6 5.68 6 5 C4.02 4.34 2.04 3.68 0 3 C0 2.01 0 1.02 0 0 Z " fill="#D7FDFE" transform="translate(700,298)"/>
<path d="M0 0 C3.92582871 1.30860957 6.3987937 2.74849213 9 6 C9.75 8.75 9.75 8.75 10 11 C6.40365256 7.50640535 3.16548033 3.88901869 0 0 Z " fill="#CFF4FD" transform="translate(852,433)"/>
<path d="M0 0 C0.66 0.33 1.32 0.66 2 1 C-3.445 4.96 -3.445 4.96 -9 9 C-9 8.01 -9 7.02 -9 6 C-6.06973918 3.2650899 -3.82272915 1.27424305 0 0 Z " fill="#D0FBFC" transform="translate(898,615)"/>
<path d="M0 0 C0.66 0.66 1.32 1.32 2 2 C-1.3 4.31 -4.6 6.62 -8 9 C-8 8.01 -8 7.02 -8 6 C-7.34 6 -6.68 6 -6 6 C-5.67 4.68 -5.34 3.36 -5 2 C-3.35 2 -1.7 2 0 2 C0 1.34 0 0.68 0 0 Z " fill="#D1F9FD" transform="translate(464,377)"/>
<path d="M0 0 C0.66 0.33 1.32 0.66 2 1 C0.37982158 2.33918806 -1.24629343 3.6711969 -2.875 5 C-4.23238281 6.11375 -4.23238281 6.11375 -5.6171875 7.25 C-8 9 -8 9 -10 9 C-10 8.34 -10 7.68 -10 7 C-8.01310269 5.64721885 -6.01254782 4.31431695 -4 3 C-3.67 2.34 -3.34 1.68 -3 1 C-2.01 0.67 -1.02 0.34 0 0 Z " fill="#52C0D7" transform="translate(460,239)"/>
<path d="M0 0 C0.84172676 2.35683494 1.10948624 3.6386954 0.375 6.0625 C-1.37634575 8.53030537 -3.34701621 9.60369274 -6 11 C-4.18690997 7.22272911 -2.0926741 3.62730178 0 0 Z " fill="#DDFBFE" transform="translate(866,520)"/>
<path d="M0 0 C0.33 0 0.66 0 1 0 C1.33 2.97 1.66 5.94 2 9 C2.66 9 3.32 9 4 9 C4 10.98 4 12.96 4 15 C3.34 13.68 2.68 12.36 2 11 C1.34 11 0.68 11 0 11 C0 7.37 0 3.74 0 0 Z " fill="#48C0E6" transform="translate(642,517)"/>
<path d="M0 0 C0.66 0.33 1.32 0.66 2 1 C2 2.32 2 3.64 2 5 C1.236875 5.28875 0.47375 5.5775 -0.3125 5.875 C-3.15029308 6.96269013 -3.15029308 6.96269013 -6 9 C-5.34 7.35 -4.68 5.7 -4 4 C-3.34 4 -2.68 4 -2 4 C-1.34 2.68 -0.68 1.36 0 0 Z " fill="#57C5D8" transform="translate(750,436)"/>
<path d="M0 0 C2.31 0.33 4.62 0.66 7 1 C7 1.66 7 2.32 7 3 C7.928125 3.12375 7.928125 3.12375 8.875 3.25 C11 4 11 4 12.25 6.0625 C12.4975 6.701875 12.745 7.34125 13 8 C10.03216871 6.54331217 7.13584687 4.98767914 4.25 3.375 C3.45078125 2.92898438 2.6515625 2.48296875 1.828125 2.0234375 C1.22484375 1.68570312 0.6215625 1.34796875 0 1 C0 0.67 0 0.34 0 0 Z " fill="#5AC0D8" transform="translate(885,346)"/>
<path d="M0 0 C1.32 0.33 2.64 0.66 4 1 C-1.445 4.96 -1.445 4.96 -7 9 C-7.33 8.34 -7.66 7.68 -8 7 C-7.34 7 -6.68 7 -6 7 C-6 6.34 -6 5.68 -6 5 C-2.53846154 2 -2.53846154 2 0 2 C0 1.34 0 0.68 0 0 Z " fill="#5ABFDC" transform="translate(344,319)"/>
<path d="M0 0 C1.64936913 0.78427352 3.29441127 1.57765259 4.9375 2.375 C5.85402344 2.81585937 6.77054688 3.25671875 7.71484375 3.7109375 C10 5 10 5 11 7 C9.68 7 8.36 7 7 7 C7 6.34 7 5.68 7 5 C4.03 4.505 4.03 4.505 1 4 C0.67 2.68 0.34 1.36 0 0 Z " fill="#52BFE0" transform="translate(717,624)"/>
<path d="M0 0 C0.66 0.33 1.32 0.66 2 1 C1 4 1 4 -1 5 C-1.65213292 7.02463255 -1.65213292 7.02463255 -2 9 C-2.66 9 -3.32 9 -4 9 C-4 9.99 -4 10.98 -4 12 C-4.66 12 -5.32 12 -6 12 C-4.43358249 7.69235185 -2.31663844 3.93828536 0 0 Z " fill="#56BDD6" transform="translate(743,445)"/>
<path d="M0 0 C1.2077558 3.62326739 0.54311128 4.64146369 -1 8 C-1.66 8 -2.32 8 -3 8 C-3 8.66 -3 9.32 -3 10 C-3.66 10 -4.32 10 -5 10 C-3.84414715 6.08788267 -2.64465038 3.1254959 0 0 Z " fill="#D6FBFE" transform="translate(227,409)"/>
<path d="M0 0 C5.49152542 0.61016949 5.49152542 0.61016949 7.875 2.4375 C9 4 9 4 9 6 C9.99 6.33 10.98 6.66 12 7 C11.01 7.495 11.01 7.495 10 8 C8.33055479 6.85821872 6.6645052 5.71147095 5 4.5625 C4.071875 3.92441406 3.14375 3.28632813 2.1875 2.62890625 C1.465625 2.09136719 0.74375 1.55382812 0 1 C0 0.67 0 0.34 0 0 Z " fill="#CDF9FD" transform="translate(640,396)"/>
<path d="M0 0 C4.59306496 1.4859916 7.43569245 3.85014682 11 7 C10.01 7.495 10.01 7.495 9 8 C7.49460339 7.05016642 5.99579653 6.08988109 4.5 5.125 C3.6646875 4.59132813 2.829375 4.05765625 1.96875 3.5078125 C1.3190625 3.01023437 0.669375 2.51265625 0 2 C0 1.34 0 0.68 0 0 Z " fill="#53BEE2" transform="translate(615,380)"/>
<path d="M0 0 C4.875 1.875 4.875 1.875 6 3 C7.34747084 3.23075082 8.70377565 3.41153063 10.0625 3.5625 C11.361875 3.706875 12.66125 3.85125 14 4 C11 6 11 6 8 7 C5.95703125 5.8203125 5.95703125 5.8203125 3.8125 4.125 C3.09707031 3.57070313 2.38164063 3.01640625 1.64453125 2.4453125 C1.10183594 1.96835937 0.55914063 1.49140625 0 1 C0 0.67 0 0.34 0 0 Z " fill="#60C3D7" transform="translate(742,326)"/>
<path d="M0 0 C2.97 0.495 2.97 0.495 6 1 C6 1.66 6 2.32 6 3 C6.99 3.33 7.98 3.66 9 4 C9.33 4.99 9.66 5.98 10 7 C5.56541027 5.6062718 3.12621626 3.39417765 0 0 Z " fill="#5FBEDA" transform="translate(732,319)"/>
<path d="M0 0 C1.98 0 3.96 0 6 0 C2.87378374 3.39417765 0.43458973 5.6062718 -4 7 C-2.25 3.125 -2.25 3.125 0 2 C0 1.34 0 0.68 0 0 Z " fill="#4EBFDF" transform="translate(415,268)"/>
<path d="M0 0 C7.57142857 4.14285714 7.57142857 4.14285714 10 7 C6.06380262 6.43768609 3.20807554 5.38314183 0 3 C0 2.01 0 1.02 0 0 Z " fill="#D3FBFE" transform="translate(584,217)"/>
<path d="M0 0 C-3.3 2.31 -6.6 4.62 -10 7 C-10.66 6.67 -11.32 6.34 -12 6 C-10.6875 4 -10.6875 4 -9 2 C-8.01 2 -7.02 2 -6 2 C-6 1.34 -6 0.68 -6 0 C-3 -1 -3 -1 0 0 Z " fill="#53C4DC" transform="translate(502,213)"/>
<path d="M0 0 C1.2065625 0.0309375 1.2065625 0.0309375 2.4375 0.0625 C-1.21109761 3.10299801 -5.3069533 5.02768762 -9.5625 7.0625 C-9.21875 5.13671875 -9.21875 5.13671875 -8.5625 3.0625 C-6.0625 1.875 -6.0625 1.875 -3.5625 1.0625 C-2.5625 0.0625 -2.5625 0.0625 0 0 Z " fill="#55BFDA" transform="translate(511.5625,204.9375)"/>
<path d="M0 0 C0 0.99 0 1.98 0 3 C-1.96875 4.82421875 -1.96875 4.82421875 -4.5 6.6875 C-5.3353125 7.31011719 -6.170625 7.93273437 -7.03125 8.57421875 C-7.6809375 9.04472656 -8.330625 9.51523437 -9 10 C-9.66 9.67 -10.32 9.34 -11 9 C-7.37 6.03 -3.74 3.06 0 0 Z " fill="#5DC7D5" transform="translate(909,608)"/>
<path d="M0 0 C0.66 0.33 1.32 0.66 2 1 C0.02 4.63 -1.96 8.26 -4 12 C-4.33 12 -4.66 12 -5 12 C-5.25 9.25 -5.25 9.25 -5 6 C-3.0625 3.75 -3.0625 3.75 -1 2 C-0.67 1.34 -0.34 0.68 0 0 Z " fill="#D4FCFD" transform="translate(945,560)"/>
<path d="M0 0 C-4.455 2.97 -4.455 2.97 -9 6 C-9.66 5.67 -10.32 5.34 -11 5 C-10.67 4.34 -10.34 3.68 -10 3 C-9.01 3 -8.02 3 -7 3 C-7 2.01 -7 1.02 -7 0 C-3.98968256 -0.93423645 -3.13349732 -1.04449911 0 0 Z " fill="#CDFAFD" transform="translate(366,449)"/>
<path d="M0 0 C3.53600465 1.91135386 5.78972846 3.62642766 8 7 C5.03 6.505 5.03 6.505 2 6 C2 5.34 2 4.68 2 4 C1.34 3.67 0.68 3.34 0 3 C0 2.01 0 1.02 0 0 Z " fill="#4EC5DF" transform="translate(845,428)"/>
<path d="M0 0 C-3.63 2.31 -7.26 4.62 -11 7 C-8.4577271 1.9154542 -6.21403399 -2.07134466 0 0 Z " fill="#D3FCFB" transform="translate(436,400)"/>
<path d="M0 0 C1.98 0 3.96 0 6 0 C-1.71428571 6 -1.71428571 6 -5 6 C-5 5.34 -5 4.68 -5 4 C-4.0409375 3.8453125 -4.0409375 3.8453125 -3.0625 3.6875 C-2.381875 3.460625 -1.70125 3.23375 -1 3 C-0.67 2.01 -0.34 1.02 0 0 Z " fill="#CDF9FC" transform="translate(880,625)"/>
<path d="M0 0 C0.99 0.33 1.98 0.66 3 1 C0.03 4.3 -2.94 7.6 -6 11 C-6 7.05594798 -4.50598828 5.9482215 -2 3 C-1.34 2.01 -0.68 1.02 0 0 Z " fill="#D2FCFE" transform="translate(929,584)"/>
<path d="M0 0 C0.33 0 0.66 0 1 0 C1.25 2.25 1.25 2.25 1 5 C-0.8125 7.125 -0.8125 7.125 -3 9 C-3.5775 9.5775 -4.155 10.155 -4.75 10.75 C-5.36875 11.36875 -5.36875 11.36875 -6 12 C-4.43358249 7.69235185 -2.31663844 3.93828536 0 0 Z " fill="#5DC3DC" transform="translate(947,560)"/>
<path d="M0 0 C-0.33 0.99 -0.66 1.98 -1 3 C-5.29 3 -9.58 3 -14 3 C-14 2.67 -14 2.34 -14 2 C-12.4176994 1.66179834 -10.83410625 1.32964061 -9.25 1 C-8.36828125 0.814375 -7.4865625 0.62875 -6.578125 0.4375 C-4 0 -4 0 0 0 Z " fill="#D9F9FE" transform="translate(822,556)"/>
<path d="M0 0 C3.63 2.31 7.26 4.62 11 7 C10.01 7.495 10.01 7.495 9 8 C6.8359375 7.00390625 6.8359375 7.00390625 4.375 5.5625 C3.55773437 5.08941406 2.74046875 4.61632812 1.8984375 4.12890625 C1.27195312 3.75636719 0.64546875 3.38382812 0 3 C0 2.01 0 1.02 0 0 Z " fill="#CFFAFE" transform="translate(646,260)"/>
<path d="M0 0 C0.66 0.33 1.32 0.66 2 1 C-0.23407889 4.35111834 -1.26215824 5.81553956 -5.25 6.8125 C-6.61125 6.9053125 -6.61125 6.9053125 -8 7 C-5.4837822 4.39391727 -2.94865641 2.10618315 0 0 Z " fill="#D7F9FA" transform="translate(477,229)"/>
<path d="M0 0 C0.33 0.66 0.66 1.32 1 2 C0.21625 2.2475 -0.5675 2.495 -1.375 2.75 C-4.32317108 4.15389099 -4.9024777 5.00675737 -6 8 C-7.32 7.67 -8.64 7.34 -10 7 C-6.7 4.69 -3.4 2.38 0 0 Z " fill="#CEF6FC" transform="translate(502,212)"/>
<path d="M0 0 C0.66 0.33 1.32 0.66 2 1 C1.34 1.66 0.68 2.32 0 3 C-0.99 3 -1.98 3 -3 3 C-3.33 3.99 -3.66 4.98 -4 6 C-5.98 6 -7.96 6 -10 6 C-6.71739341 3.81159561 -3.49181927 1.84114107 0 0 Z " fill="#63C7DC" transform="translate(835,853)"/>
<path d="M0 0 C4.44870215 -0.39253254 7.14243493 0.84694043 11 3 C9.4375 4.25 9.4375 4.25 7 5 C4.42998985 3.93237266 2.3469597 2.53455057 0 1 C0 0.67 0 0.34 0 0 Z " fill="#DBFBFC" transform="translate(720,625)"/>
<path d="M0 0 C1 4 1 4 -0.4375 6.75 C-1.2109375 7.86375 -1.2109375 7.86375 -2 9 C-2.99 8.67 -3.98 8.34 -5 8 C-3.35 5.36 -1.7 2.72 0 0 Z " fill="#56C0E0" transform="translate(940,572)"/>
<path d="M0 0 C0.66 0.66 1.32 1.32 2 2 C-2.95 4.97 -2.95 4.97 -8 8 C-7.67 7.01 -7.34 6.02 -7 5 C-6.34 5 -5.68 5 -5 5 C-5 4.01 -5 3.02 -5 2 C-3.35 1.34 -1.7 0.68 0 0 Z " fill="#D2F7FC" transform="translate(496,355)"/>
<path d="M0 0 C0.556875 0.226875 1.11375 0.45375 1.6875 0.6875 C-4.59821429 5.11607143 -4.59821429 5.11607143 -8.3125 5.6875 C-7.3125 2.6875 -7.3125 2.6875 -5 0.9375 C-2.3125 -0.3125 -2.3125 -0.3125 0 0 Z " fill="#4FC0E1" transform="translate(488.3125,220.3125)"/>
<path d="M0 0 C3.63 0 7.26 0 11 0 C11 0.99 11 1.98 11 3 C7.37 2.34 3.74 1.68 0 1 C0 0.67 0 0.34 0 0 Z " fill="#42BFE2" transform="translate(145,1074)"/>
<path d="M0 0 C3.28788824 3.11016455 5.83735988 6.01618925 8 10 C6.68 10 5.36 10 4 10 C2.66666667 6.66666667 1.33333333 3.33333333 0 0 Z " fill="#D0F9FC" transform="translate(927,382)"/>
<path d="M0 0 C0.66 0.33 1.32 0.66 2 1 C2 2.32 2 3.64 2 5 C0.35 4.67 -1.3 4.34 -3 4 C-2.67 3.01 -2.34 2.02 -2 1 C-1.34 0.67 -0.68 0.34 0 0 Z " fill="#37C8DF" transform="translate(502,355)"/>
<path d="M0 0 C1.65 0.33 3.3 0.66 5 1 C3.37660195 2.70884005 1.70680947 4.37446717 0 6 C-0.66 6 -1.32 6 -2 6 C-2 5.34 -2 4.68 -2 4 C-1.34 4 -0.68 4 0 4 C0 2.68 0 1.36 0 0 Z " fill="#48BFE5" transform="translate(350,313)"/>
<path d="M0 0 C0.99 0.495 0.99 0.495 2 1 C2 2.32 2 3.64 2 5 C3.32 5.33 4.64 5.66 6 6 C6 6.66 6 7.32 6 8 C4.68 8.33 3.36 8.66 2 9 C1.34 6.03 0.68 3.06 0 0 Z " fill="#42C1E2" transform="translate(10,948)"/>
<path d="M0 0 C4.875 4.75 4.875 4.75 6 7 C4.02 6.34 2.04 5.68 0 5 C0 3.35 0 1.7 0 0 Z " fill="#56C0DF" transform="translate(228,838)"/>
<path d="M0 0 C7.57142857 3 7.57142857 3 10 6 C6.58978257 5.21302675 3.31114834 4.12880057 0 3 C0 2.01 0 1.02 0 0 Z " fill="#CAF9FC" transform="translate(884,346)"/>
<path d="M0 0 C0.61488281 0.19078125 1.22976563 0.3815625 1.86328125 0.578125 C0.74254263 1.41718065 -0.38346422 2.24920331 -1.51171875 3.078125 C-2.13820313 3.5421875 -2.7646875 4.00625 -3.41015625 4.484375 C-5.13671875 5.578125 -5.13671875 5.578125 -7.13671875 5.578125 C-5.92340024 1.93816948 -4.18071525 -0.82544286 0 0 Z " fill="#5BC7DA" transform="translate(328.13671875,332.421875)"/>
<path d="M0 0 C2.475 0.495 2.475 0.495 5 1 C5 1.66 5 2.32 5 3 C5.639375 3.28875 6.27875 3.5775 6.9375 3.875 C9 5 9 5 10 7 C6.42032008 5.34784004 3.22017048 3.26875648 0 1 C0 0.67 0 0.34 0 0 Z " fill="#5EC5D8" transform="translate(670,276)"/>
<path d="M0 0 C6.625 -0.25 6.625 -0.25 10 2 C10 2.66 10 3.32 10 4 C6.7 3.01 3.4 2.02 0 1 C0 0.67 0 0.34 0 0 Z " fill="#55C0E8" transform="translate(558,202)"/>
<path d="M0 0 C-6.4 4.06153846 -6.4 4.06153846 -9.4375 3.75 C-9.953125 3.5025 -10.46875 3.255 -11 3 C-3.71428571 -1.85714286 -3.71428571 -1.85714286 0 0 Z " fill="#44BEE2" transform="translate(134,10)"/>
<path d="M0 0 C3.3 0.33 6.6 0.66 10 1 C9.67 1.66 9.34 2.32 9 3 C6.1875 3.1875 6.1875 3.1875 3 3 C2.01 2.01 1.02 1.02 0 0 Z " fill="#56C7DD" transform="translate(262,862)"/>
<path d="M0 0 C1.134375 0.020625 2.26875 0.04125 3.4375 0.0625 C2.4375 2.0625 2.4375 2.0625 -0.625 3.1875 C-2.0790625 3.620625 -2.0790625 3.620625 -3.5625 4.0625 C-3.8925 3.0725 -4.2225 2.0825 -4.5625 1.0625 C-3.5625 0.0625 -3.5625 0.0625 0 0 Z " fill="#D7F8F8" transform="translate(868.5625,631.9375)"/>
<path d="M0 0 C0.33 0 0.66 0 1 0 C0.25 7.75 0.25 7.75 -2 10 C-1.85950482 8.52031676 -1.71245174 7.04125484 -1.5625 5.5625 C-1.48128906 4.73878906 -1.40007813 3.91507812 -1.31640625 3.06640625 C-1 1 -1 1 0 0 Z " fill="#4DC3E2" transform="translate(649,428)"/>
<path d="M0 0 C0.99 0.33 1.98 0.66 3 1 C0.69 2.65 -1.62 4.3 -4 6 C-4.33 5.01 -4.66 4.02 -5 3 C-3.35 2.67 -1.7 2.34 0 2 C0 1.34 0 0.68 0 0 Z " fill="#D9FBFD" transform="translate(421,407)"/>
<path d="M0 0 C4.455 2.97 4.455 2.97 9 6 C8.01 6.33 7.02 6.66 6 7 C5.01 6.34 4.02 5.68 3 5 C3 4.34 3 3.68 3 3 C2.01 2.67 1.02 2.34 0 2 C0 1.34 0 0.68 0 0 Z " fill="#D1FAFB" transform="translate(894,352)"/>
<path d="M0 0 C0.33 0.66 0.66 1.32 1 2 C-1 5 -1 5 -4.125 5.6875 C-5.07375 5.790625 -6.0225 5.89375 -7 6 C-2.25 1.125 -2.25 1.125 0 0 Z " fill="#5DC6E0" transform="translate(529,334)"/>
<path d="M0 0 C3.5786304 1.65167557 6.74820188 3.78286492 10 6 C9.01 6.33 8.02 6.66 7 7 C5.17578125 6.07421875 5.17578125 6.07421875 3.3125 4.6875 C2.37857422 4.01267578 2.37857422 4.01267578 1.42578125 3.32421875 C0.95527344 2.88722656 0.48476563 2.45023437 0 2 C0 1.34 0 0.68 0 0 Z " fill="#D7FBFE" transform="translate(740,326)"/>
<path d="M0 0 C0.33 0.66 0.66 1.32 1 2 C-0.75 4.0625 -0.75 4.0625 -3 6 C-4.32 5.67 -5.64 5.34 -7 5 C-4.69 3.35 -2.38 1.7 0 0 Z " fill="#D3F9FD" transform="translate(344,322)"/>
<path d="M0 0 C0.66 0.33 1.32 0.66 2 1 C-1.20336822 3.83374881 -3.78087253 4.5205537 -8 5 C-5.31158141 2.74754119 -3.35358125 1.11786042 0 0 Z " fill="#DBF9FD" transform="translate(353,317)"/>
<path d="M0 0 C0.99 0.33 1.98 0.66 3 1 C3 1.66 3 2.32 3 3 C3.66 3 4.32 3 5 3 C5.33 3.99 5.66 4.98 6 6 C2.62496331 4.8141763 0.35277269 3.72426311 -2 1 C-1.34 0.67 -0.68 0.34 0 0 Z " fill="#52C2DB" transform="translate(650,260)"/>
<path d="M0 0 C-1.32 0.33 -2.64 0.66 -4 1 C-4 1.66 -4 2.32 -4 3 C-5.98 3 -7.96 3 -10 3 C-4.375 -1.3125 -4.375 -1.3125 0 0 Z " fill="#CCFAFD" transform="translate(520,205)"/>
<path d="M0 0 C0 0.66 0 1.32 0 2 C-3.3 1.67 -6.6 1.34 -10 1 C-5.64467851 -1.17766075 -4.53374042 -1.03039555 0 0 Z " fill="#56C0DA" transform="translate(558,200)"/>
<path d="M0 0 C1.32 0 2.64 0 4 0 C3.625 2.4375 3.625 2.4375 3 5 C2.01 5.495 2.01 5.495 1 6 C0.67 4.02 0.34 2.04 0 0 Z " fill="#34C9E0" transform="translate(13,956)"/>
<path d="M0 0 C-1.44253657 3.36591866 -3.33264727 5.51047079 -6 8 C-5.62403791 5.21788056 -5.32681541 3.4120716 -3.5625 1.1875 C-2 0 -2 0 0 0 Z " fill="#D4FBFD" transform="translate(852,836)"/>
<path d="M0 0 C2.32472205 2.85306797 3.7508258 5.54074837 5 9 C3.0625 8.4375 3.0625 8.4375 1 7 C0.25 3.375 0.25 3.375 0 0 Z " fill="#54C2D8" transform="translate(658,560)"/>
<path d="M0 0 C1.80330533 3.60661066 2.46599103 6.08393425 3 10 C2.01 9.67 1.02 9.34 0 9 C0 6.03 0 3.06 0 0 Z " fill="#CEF7FC" transform="translate(732,502)"/>
<path d="M0 0 C0.99 0.33 1.98 0.66 3 1 C-2.75 6 -2.75 6 -5 6 C-5 5.34 -5 4.68 -5 4 C-3.35 3.34 -1.7 2.68 0 2 C0 1.34 0 0.68 0 0 Z " fill="#3DC0E6" transform="translate(397,427)"/>
<path d="M0 0 C6.875 3.75 6.875 3.75 8 6 C5.21788056 5.62403791 3.4120716 5.32681541 1.1875 3.5625 C0 2 0 2 0 0 Z " fill="#5DBEE3" transform="translate(584,358)"/>
<path d="M0 0 C0.721875 0.103125 1.44375 0.20625 2.1875 0.3125 C1.1975 0.6425 0.2075 0.9725 -0.8125 1.3125 C-0.8125 1.9725 -0.8125 2.6325 -0.8125 3.3125 C-3.1225 3.9725 -5.4325 4.6325 -7.8125 5.3125 C-3.50480769 0.38942308 -3.50480769 0.38942308 0 0 Z " fill="#4FC4DB" transform="translate(538.8125,328.6875)"/>
<path d="M0 0 C6.875 3.75 6.875 3.75 8 6 C2.25 4.125 2.25 4.125 0 3 C0 2.01 0 1.02 0 0 Z " fill="#D7FBFE" transform="translate(729,318)"/>
<path d="M0 0 C2.97 0.495 2.97 0.495 6 1 C6.33 2.32 6.66 3.64 7 5 C3.34683329 3.75023244 2.21934164 3.32901247 0 0 Z " fill="#5AC9DC" transform="translate(706,301)"/>
<path d="M0 0 C3.67420866 0.30618405 4.78135513 0.75771784 7.3125 3.5625 C8.1478125 4.7690625 8.1478125 4.7690625 9 6 C5.06326356 4.68775452 2.77280706 3.08089673 0 0 Z " fill="#5EC3D9" transform="translate(680,283)"/>
</svg>
