<?xml version="1.0" standalone="no"?>
<!DOCTYPE svg PUBLIC "-//W3C//DTD SVG 20010904//EN"
 "http://www.w3.org/TR/2001/REC-SVG-20010904/DTD/svg10.dtd">
<svg version="1.0" xmlns="http://www.w3.org/2000/svg"
 width="257.000000pt" height="100.000000pt" viewBox="0 0 257.000000 100.000000"
 preserveAspectRatio="xMidYMid meet">

<g transform="translate(0.000000,100.000000) scale(0.100000,-0.100000)"
fill="#000000" stroke="none">
<path d="M875 993 c-101 -13 -215 -74 -292 -156 -63 -67 -91 -116 -71 -128 21
-13 23 -12 57 41 44 67 102 116 191 159 73 35 78 36 191 36 113 0 116 -1 191
-38 82 -40 150 -99 192 -166 23 -36 29 -40 46 -31 19 10 18 12 -11 60 -96 156
-301 249 -494 223z"/>
<path d="M0 550 l0 -290 30 0 30 0 0 140 0 140 33 36 c52 57 134 65 204 19 42
-28 53 -72 53 -210 l0 -125 28 0 27 0 -5 147 c-4 126 -8 153 -26 183 -56 96
-228 110 -299 23 l-20 -24 4 125 3 126 -31 0 -31 0 0 -290z"/>
<path d="M1870 710 l0 -130 -39 39 c-45 45 -83 56 -166 49 -167 -14 -244 -221
-129 -348 49 -54 107 -74 190 -67 80 6 136 40 168 102 19 36 21 60 24 263 l3
222 -25 0 -26 0 0 -130z m-125 -91 c88 -22 142 -121 114 -208 -23 -71 -79
-111 -156 -111 -99 0 -163 61 -163 157 0 83 33 132 107 159 47 16 45 16 98 3z"/>
<path d="M2006 814 c-21 -21 -17 -42 11 -61 19 -13 24 -12 43 7 19 19 20 24 7
43 -19 28 -40 32 -61 11z"/>
<path d="M641 669 c-68 -13 -119 -52 -147 -112 -70 -151 30 -306 197 -307 104
0 190 65 214 163 6 24 12 27 46 27 36 0 39 -2 49 -40 34 -127 191 -188 318
-124 75 37 107 94 107 189 0 61 -4 76 -30 115 -97 143 -320 123 -386 -34 -22
-54 -24 -56 -60 -56 -34 0 -38 3 -50 38 -35 107 -138 164 -258 141z m100 -50
c135 -45 153 -238 28 -301 -73 -38 -172 -14 -216 52 -27 39 -31 125 -9 168 38
73 119 107 197 81z m520 0 c139 -47 154 -250 23 -305 -116 -49 -234 24 -234
143 0 123 99 199 211 162z"/>
<path d="M2240 647 c-114 -60 -143 -226 -57 -324 92 -105 284 -96 351 18 l17
29 -27 0 c-18 0 -40 -12 -61 -32 -30 -29 -41 -33 -101 -36 -77 -4 -118 15
-152 70 -41 68 -42 68 171 68 l192 0 -6 45 c-9 65 -39 117 -88 151 -36 25 -53
29 -118 32 -65 3 -83 0 -121 -21z m155 -28 c56 -15 115 -76 115 -119 0 -6 -55
-10 -160 -10 -105 0 -160 4 -160 10 0 18 27 64 48 83 19 18 84 46 107 47 6 0
28 -5 50 -11z"/>
<path d="M2010 460 l0 -200 25 0 25 0 0 200 0 200 -25 0 -25 0 0 -200z"/>
</g>
</svg>
