<?xml version="1.0" standalone="no"?>
<!DOCTYPE svg PUBLIC "-//W3C//DTD SVG 20010904//EN"
 "http://www.w3.org/TR/2001/REC-SVG-20010904/DTD/svg10.dtd">
<svg version="1.0" xmlns="http://www.w3.org/2000/svg"
 width="173.000000pt" height="42.000000pt" viewBox="0 0 173.000000 42.000000"
 preserveAspectRatio="xMidYMid meet">

<g transform="translate(0.000000,42.000000) scale(0.100000,-0.100000)"
fill="#000000" stroke="none">
<path d="M695 397 c-12 -10 -14 -16 -7 -21 15 -9 17 -252 2 -261 -21 -13 -9
-25 25 -25 19 0 35 5 35 10 0 6 -4 10 -10 10 -6 0 -10 57 -10 150 0 83 -4 150
-8 150 -5 0 -16 -6 -27 -13z"/>
<path d="M801 401 c-9 -6 -13 -49 -14 -160 l-2 -151 33 0 c17 0 32 5 32 10 0
6 -4 10 -10 10 -6 0 -10 55 -10 144 0 80 -4 147 -8 150 -4 2 -14 1 -21 -3z"/>
<path d="M16 365 c-3 -9 1 -18 10 -22 19 -7 39 11 30 26 -10 16 -33 13 -40 -4z"/>
<path d="M897 374 c-14 -15 -6 -34 14 -34 14 0 19 5 17 17 -3 18 -20 27 -31
17z"/>
<path d="M380 346 c0 -35 -10 -56 -26 -56 -8 0 -14 -4 -14 -10 0 -5 7 -10 15
-10 12 0 15 -16 15 -85 l0 -85 41 0 c24 0 38 4 34 10 -3 6 -15 10 -26 10 -17
0 -19 7 -19 75 0 73 1 75 25 75 14 0 25 5 25 10 0 6 -11 10 -25 10 -22 0 -25
4 -25 40 0 22 -4 40 -10 40 -5 0 -10 -11 -10 -24z"/>
<path d="M191 284 c-26 -11 -36 -12 -42 -3 -4 7 -15 9 -24 5 -14 -5 -15 -9 -5
-21 8 -10 11 -42 8 -95 -3 -75 -2 -81 16 -78 17 3 19 11 17 74 -2 55 2 75 14
88 21 20 59 21 79 0 19 -19 22 -124 4 -142 -9 -9 -5 -12 18 -12 l30 0 -6 73
c-6 70 -22 117 -40 117 -4 0 -14 2 -22 5 -7 2 -28 -2 -47 -11z"/>
<path d="M535 291 c-75 -32 -92 -152 -25 -186 41 -21 83 -19 114 6 36 28 27
34 -17 13 -41 -20 -78 -10 -96 25 -10 18 -7 20 34 27 25 3 56 15 70 26 27 21
33 59 13 76 -19 15 -70 22 -93 13z m63 -23 c23 -23 13 -48 -23 -64 -19 -7 -44
-14 -55 -14 -28 0 -26 35 5 65 26 27 54 32 73 13z"/>
<path d="M903 287 c-23 -10 -31 -27 -13 -27 13 0 13 -137 0 -145 -21 -13 -9
-25 25 -25 19 0 35 5 35 10 0 6 -4 10 -10 10 -5 0 -11 42 -12 94 -3 92 -3 93
-25 83z"/>
<path d="M1043 293 c-60 -12 -85 -112 -38 -158 13 -14 32 -25 42 -26 59 -2 75
-6 83 -19 6 -8 10 -18 10 -22 0 -15 -40 -28 -84 -28 -35 0 -46 4 -46 16 0 20
-24 13 -28 -8 -8 -39 129 -49 169 -12 25 22 24 60 -1 74 -19 10 -19 13 -5 40
17 34 19 73 5 101 -8 15 -7 19 5 19 8 0 15 5 15 10 0 6 -18 10 -39 10 -22 0
-45 2 -53 4 -7 2 -23 1 -35 -1z m68 -44 c19 -36 14 -91 -11 -111 -26 -21 -40
-22 -64 -5 -22 16 -32 87 -17 116 16 29 76 30 92 0z"/>
<path d="M15 280 c-4 -6 -2 -17 5 -25 10 -12 8 -77 -6 -142 -4 -20 0 -23 25
-23 16 0 33 5 36 10 3 6 1 10 -4 10 -7 0 -11 33 -11 90 0 82 -2 90 -19 90 -11
0 -23 -5 -26 -10z"/>
<path d="M1217 283 c-17 -16 -4 -22 38 -16 47 6 75 -6 75 -33 0 -10 -13 -14
-41 -14 -31 0 -47 -6 -70 -29 -16 -16 -29 -38 -29 -49 0 -46 81 -69 128 -36
20 14 22 14 22 0 0 -10 9 -16 25 -16 25 0 33 14 15 25 -5 3 -10 33 -10 66 0
80 -26 109 -98 109 -27 0 -52 -3 -55 -7z m123 -108 c0 -26 -6 -39 -24 -51 -30
-19 -65 -15 -80 9 -20 31 28 77 82 77 19 0 22 -5 22 -35z"/>
<path d="M1432 283 c-10 -4 -10 -8 -1 -19 7 -9 10 -43 7 -94 l-3 -80 27 0 c28
0 37 13 18 25 -5 3 -10 44 -10 91 0 85 -3 91 -38 77z"/>
<path d="M1540 274 c-12 -13 -8 -14 38 -8 54 7 82 -4 82 -32 0 -10 -13 -14
-41 -14 -31 0 -47 -6 -70 -29 -33 -34 -37 -61 -11 -84 24 -22 90 -22 114 0 17
15 18 15 18 0 0 -11 8 -17 25 -17 14 0 25 5 25 10 0 6 -4 10 -10 10 -5 0 -10
25 -10 55 0 60 -19 109 -45 119 -32 12 -102 6 -115 -10z m130 -94 c0 -36 -31
-70 -63 -70 -55 0 -66 63 -14 85 17 8 42 14 55 15 18 0 22 -5 22 -30z"/>
</g>
</svg>
